<svg width="145" height="197" viewBox="0 0 145 197" fill="none" xmlns="http://www.w3.org/2000/svg">
<path d="M34.8423 186.536C35.8823 186.865 36.697 187.42 37.2863 188.2C37.8756 188.963 38.1703 189.907 38.1703 191.034C38.1703 192.629 37.5463 193.859 36.2983 194.726C35.0676 195.575 33.265 196 30.8903 196H21.4783V177.8H30.3703C32.589 177.8 34.2876 178.225 35.4663 179.074C36.6623 179.923 37.2603 181.076 37.2603 182.532C37.2603 183.416 37.0436 184.205 36.6103 184.898C36.1943 185.591 35.605 186.137 34.8423 186.536ZM25.6643 180.972V185.262H29.8503C30.8903 185.262 31.679 185.08 32.2163 184.716C32.7536 184.352 33.0223 183.815 33.0223 183.104C33.0223 182.393 32.7536 181.865 32.2163 181.518C31.679 181.154 30.8903 180.972 29.8503 180.972H25.6643ZM30.5783 192.828C31.6876 192.828 32.5196 192.646 33.0743 192.282C33.6463 191.918 33.9323 191.355 33.9323 190.592C33.9323 189.084 32.8143 188.33 30.5783 188.33H25.6643V192.828H30.5783ZM54.7752 189.058C54.7752 189.11 54.7492 189.474 54.6972 190.15H44.1152C44.3058 191.017 44.7565 191.701 45.4672 192.204C46.1778 192.707 47.0618 192.958 48.1192 192.958C48.8472 192.958 49.4885 192.854 50.0432 192.646C50.6152 192.421 51.1438 192.074 51.6292 191.606L53.7872 193.946C52.4698 195.454 50.5458 196.208 48.0152 196.208C46.4378 196.208 45.0425 195.905 43.8292 195.298C42.6158 194.674 41.6798 193.816 41.0212 192.724C40.3625 191.632 40.0332 190.393 40.0332 189.006C40.0332 187.637 40.3538 186.406 40.9952 185.314C41.6538 184.205 42.5465 183.347 43.6732 182.74C44.8172 182.116 46.0912 181.804 47.4952 181.804C48.8645 181.804 50.1038 182.099 51.2132 182.688C52.3225 183.277 53.1892 184.127 53.8132 185.236C54.4545 186.328 54.7752 187.602 54.7752 189.058ZM47.5212 184.872C46.6025 184.872 45.8312 185.132 45.2072 185.652C44.5832 186.172 44.2018 186.883 44.0632 187.784H50.9532C50.8145 186.9 50.4332 186.198 49.8092 185.678C49.1852 185.141 48.4225 184.872 47.5212 184.872ZM62.1815 196.208C61.0202 196.208 59.8848 196.069 58.7755 195.792C57.6662 195.497 56.7822 195.133 56.1235 194.7L57.4755 191.788C58.0995 192.187 58.8535 192.516 59.7375 192.776C60.6215 193.019 61.4882 193.14 62.3375 193.14C64.0535 193.14 64.9115 192.715 64.9115 191.866C64.9115 191.467 64.6775 191.181 64.2095 191.008C63.7415 190.835 63.0222 190.687 62.0515 190.566C60.9075 190.393 59.9628 190.193 59.2175 189.968C58.4722 189.743 57.8222 189.344 57.2675 188.772C56.7302 188.2 56.4615 187.385 56.4615 186.328C56.4615 185.444 56.7128 184.664 57.2155 183.988C57.7355 183.295 58.4808 182.757 59.4515 182.376C60.4395 181.995 61.6008 181.804 62.9355 181.804C63.9235 181.804 64.9028 181.917 65.8735 182.142C66.8615 182.35 67.6762 182.645 68.3175 183.026L66.9655 185.912C65.7348 185.219 64.3915 184.872 62.9355 184.872C62.0688 184.872 61.4188 184.993 60.9855 185.236C60.5522 185.479 60.3355 185.791 60.3355 186.172C60.3355 186.605 60.5695 186.909 61.0375 187.082C61.5055 187.255 62.2508 187.42 63.2735 187.576C64.4175 187.767 65.3535 187.975 66.0815 188.2C66.8095 188.408 67.4422 188.798 67.9795 189.37C68.5168 189.942 68.7855 190.739 68.7855 191.762C68.7855 192.629 68.5255 193.4 68.0055 194.076C67.4855 194.752 66.7228 195.281 65.7175 195.662C64.7295 196.026 63.5508 196.208 62.1815 196.208ZM80.31 195.324C79.9113 195.619 79.4173 195.844 78.828 196C78.256 196.139 77.6493 196.208 77.008 196.208C75.344 196.208 74.0527 195.783 73.134 194.934C72.2327 194.085 71.782 192.837 71.782 191.19V185.444H69.624V182.324H71.782V178.918H75.838V182.324H79.322V185.444H75.838V191.138C75.838 191.727 75.9853 192.187 76.28 192.516C76.592 192.828 77.0253 192.984 77.58 192.984C78.2213 192.984 78.7673 192.811 79.218 192.464L80.31 195.324ZM90.2361 177.8H94.4481V196H90.2361V177.8ZM112.729 176.708V196H108.855V194.388C107.85 195.601 106.394 196.208 104.487 196.208C103.17 196.208 101.974 195.913 100.899 195.324C99.842 194.735 99.01 193.894 98.4034 192.802C97.7967 191.71 97.4934 190.445 97.4934 189.006C97.4934 187.567 97.7967 186.302 98.4034 185.21C99.01 184.118 99.842 183.277 100.899 182.688C101.974 182.099 103.17 181.804 104.487 181.804C106.273 181.804 107.668 182.367 108.673 183.494V176.708H112.729ZM105.189 192.88C106.212 192.88 107.061 192.533 107.737 191.84C108.413 191.129 108.751 190.185 108.751 189.006C108.751 187.827 108.413 186.891 107.737 186.198C107.061 185.487 106.212 185.132 105.189 185.132C104.149 185.132 103.291 185.487 102.615 186.198C101.939 186.891 101.601 187.827 101.601 189.006C101.601 190.185 101.939 191.129 102.615 191.84C103.291 192.533 104.149 192.88 105.189 192.88ZM130.185 189.058C130.185 189.11 130.159 189.474 130.107 190.15H119.525C119.716 191.017 120.167 191.701 120.877 192.204C121.588 192.707 122.472 192.958 123.529 192.958C124.257 192.958 124.899 192.854 125.453 192.646C126.025 192.421 126.554 192.074 127.039 191.606L129.197 193.946C127.88 195.454 125.956 196.208 123.425 196.208C121.848 196.208 120.453 195.905 119.239 195.298C118.026 194.674 117.09 193.816 116.431 192.724C115.773 191.632 115.443 190.393 115.443 189.006C115.443 187.637 115.764 186.406 116.405 185.314C117.064 184.205 117.957 183.347 119.083 182.74C120.227 182.116 121.501 181.804 122.905 181.804C124.275 181.804 125.514 182.099 126.623 182.688C127.733 183.277 128.599 184.127 129.223 185.236C129.865 186.328 130.185 187.602 130.185 189.058ZM122.931 184.872C122.013 184.872 121.241 185.132 120.617 185.652C119.993 186.172 119.612 186.883 119.473 187.784H126.363C126.225 186.9 125.843 186.198 125.219 185.678C124.595 185.141 123.833 184.872 122.931 184.872ZM138.147 181.804C140.313 181.804 141.977 182.324 143.139 183.364C144.3 184.387 144.881 185.938 144.881 188.018V196H141.085V194.258C140.322 195.558 138.901 196.208 136.821 196.208C135.746 196.208 134.81 196.026 134.013 195.662C133.233 195.298 132.635 194.795 132.219 194.154C131.803 193.513 131.595 192.785 131.595 191.97C131.595 190.67 132.08 189.647 133.051 188.902C134.039 188.157 135.555 187.784 137.601 187.784H140.825C140.825 186.9 140.556 186.224 140.019 185.756C139.481 185.271 138.675 185.028 137.601 185.028C136.855 185.028 136.119 185.149 135.391 185.392C134.68 185.617 134.073 185.929 133.571 186.328L132.115 183.494C132.877 182.957 133.787 182.541 134.845 182.246C135.919 181.951 137.02 181.804 138.147 181.804ZM137.835 193.478C138.528 193.478 139.143 193.322 139.681 193.01C140.218 192.681 140.599 192.204 140.825 191.58V190.15H138.043C136.379 190.15 135.547 190.696 135.547 191.788C135.547 192.308 135.746 192.724 136.145 193.036C136.561 193.331 137.124 193.478 137.835 193.478Z" fill="white"/>
<g clip-path="url(#clip0)">
<path d="M112.279 75.946V71.9975C112.279 70.8165 111.321 69.8585 110.14 69.8585C108.958 69.8585 108.001 70.8165 108.001 71.9975V75.946C108.001 77.127 108.958 78.085 110.14 78.085C111.321 78.085 112.279 77.127 112.279 75.946Z" fill="url(#paint0_linear)"/>
<path d="M92.0612 71.9975C92.0612 70.8165 91.1042 69.8585 89.9221 69.8585C88.7411 69.8585 87.7842 70.8165 87.7842 71.9975V75.946C87.7842 77.127 88.7411 78.085 89.9221 78.085C91.1042 78.085 92.0612 77.127 92.0612 75.946V71.9975Z" fill="url(#paint1_linear)"/>
<path d="M123.798 89.3657C123.293 90.4336 123.749 91.7091 124.816 92.2134C125.112 92.354 125.423 92.4199 125.731 92.4199C126.531 92.4199 127.299 91.9673 127.665 91.195C128.796 88.8054 129.599 86.3159 130.073 83.7495C135.19 83.0299 139.122 78.9694 139.122 74.0838C139.122 69.3619 135.451 65.4123 130.586 64.5016V54.9018C133.743 52.4364 136.122 49.3779 137.69 45.7469C143.115 33.1885 136.833 18.4295 136.563 17.8077C136.274 17.1408 135.665 16.6662 134.948 16.5486C134.231 16.4311 133.503 16.686 133.014 17.2254C126.776 24.1248 116.102 23.0305 104.801 21.8726C102.021 21.588 99.1459 21.2936 96.3257 21.1222C87.9805 20.6125 80.3758 25.1267 76.8383 32.4963C73.783 32.0591 70.6925 32.8105 68.1294 34.6606C65.0379 36.8919 63.223 40.3548 63.1504 44.1627C62.9955 52.2299 66.3771 60.5839 68.3623 64.7707C64.0623 66.0331 60.94 69.7299 60.94 74.0838C60.94 78.9694 64.8709 83.0299 69.9883 83.7495C71.1001 89.7766 73.9983 95.3225 78.4247 99.7478C81.4393 102.764 84.9747 105.068 88.8265 106.586V111.795H77.7985C73.8742 111.795 70.3124 113.38 67.7185 115.942V96.3618C67.7185 93.7086 65.5597 91.5509 62.9077 91.5509H52.2103C52.0301 91.5509 51.8522 91.563 51.6764 91.5817V81.6336C51.6764 80.4526 50.7195 79.4946 49.5384 79.4946C48.3563 79.4946 47.3994 80.4526 47.3994 81.6336V114.007C47.3994 115.188 48.3563 116.146 49.5384 116.146C50.7195 116.146 51.6764 115.188 51.6764 114.007V111.87H63.4405V139.646H51.6764V122.563C51.6764 121.382 50.7195 120.424 49.5384 120.424C48.3563 120.424 47.3994 121.382 47.3994 122.563V141.785C47.3994 142.966 48.3563 144.001 49.5384 144.001H134.455C135.637 144.001 136.594 143.043 136.594 141.862V126.154C136.594 118.237 130.152 111.795 122.235 111.795H111.209V106.588C116.021 104.698 120.329 101.592 123.7 97.4659C124.448 96.5508 124.312 95.2038 123.398 94.4568C122.483 93.7097 121.136 93.8438 120.388 94.7589C115.37 100.899 107.95 104.42 100.03 104.42C93.0112 104.42 86.4117 101.687 81.4492 96.7233C76.4856 91.7607 73.7522 85.1602 73.7522 78.1399V68.4017C77.6227 67.7579 80.9054 65.3431 83.3301 61.309C84.2485 59.7819 84.8978 58.2581 85.3383 57.032C91.0402 59.6742 106.089 65.2366 122.129 59.4578C123.613 58.9227 125.004 58.313 126.308 57.6351V78.1399C126.309 82.0675 125.465 85.8446 123.798 89.3657ZM109.633 116.073H112.244L109.547 125.539L103.524 119.515L109.633 116.073ZM119.835 116.073L120.427 131.073L114.215 132.626C113.468 132.813 112.878 133.388 112.672 134.13C112.467 134.873 112.677 135.669 113.222 136.213L116.729 139.721H109.954L116.692 116.073H119.835ZM87.362 134.13C87.1566 133.388 86.5677 132.813 85.8206 132.626L79.6068 131.073L80.199 116.073H83.3443L90.0822 139.721H83.3059L86.8138 136.213C87.3587 135.669 87.5686 134.873 87.362 134.13ZM100.018 122.06L103.276 125.317L99.8567 129.54L96.6421 125.437L100.018 122.06ZM108.205 130.248L106.214 137.235L102.731 132.788L106.317 128.359L108.205 130.248ZM93.5945 128.484L97.2574 133.158L93.8571 137.359L91.8312 130.247L93.5945 128.484ZM100.131 136.407L102.729 139.721H97.4485L100.131 136.407ZM90.4898 125.539L87.7927 116.073H90.403L96.5136 119.515L90.4898 125.539ZM51.6775 107.591V96.3607C51.6775 96.0674 51.9159 95.8279 52.2103 95.8279H62.9077C63.2021 95.8279 63.4405 96.0674 63.4405 96.3607V107.591H51.6775ZM67.7185 126.154C67.7185 121.241 71.2517 117.14 75.911 116.252L75.265 132.642C75.2244 133.655 75.9 134.556 76.8833 134.802L81.1185 135.86L77.2568 139.721H67.7185V126.154ZM132.317 126.154V139.721H122.778L118.918 135.861L123.152 134.802C124.135 134.556 124.811 133.655 124.771 132.643L124.124 116.254C128.783 117.14 132.317 121.241 132.317 126.154ZM106.932 107.914V112.685L100.018 116.58L93.1045 112.685V107.912C95.3501 108.43 97.6704 108.697 100.031 108.697C102.381 108.697 104.694 108.429 106.932 107.914ZM65.2181 74.0838C65.2181 71.6954 66.9978 69.6585 69.4753 68.9005V78.1399C69.4753 78.519 69.484 78.8969 69.4983 79.2748C67.0088 78.5212 65.2181 76.4799 65.2181 74.0838ZM120.68 55.4324C102.613 61.9418 85.257 52.2134 85.0857 52.1156C84.4924 51.7751 83.7717 51.7399 83.1477 52.0201C82.5226 52.298 82.0688 52.8616 81.9271 53.5307C81.9051 53.6328 79.7991 63.1777 72.859 64.2137C71.288 61.0925 67.2736 52.3035 67.4274 44.2451C67.4735 41.7951 68.6425 39.566 70.6332 38.129C71.979 37.1578 73.5501 36.6557 75.1519 36.6557C75.9275 36.6557 76.7086 36.7733 77.4744 37.0117C78.5587 37.349 79.7178 36.7799 80.1144 35.7153C82.5731 29.1093 88.9847 24.9608 96.0653 25.3926C98.7987 25.5585 101.629 25.8485 104.365 26.1287C115.008 27.2196 125.977 28.3435 133.676 22.4197C135.105 27.0109 137.147 36.2185 133.764 44.0517C131.501 49.2911 127.098 53.1209 120.68 55.4324ZM134.844 74.0838C134.844 76.4799 133.054 78.5212 130.564 79.2748C130.578 78.8969 130.586 78.5201 130.586 78.1399V68.9005C133.065 69.6585 134.844 71.6954 134.844 74.0838Z" fill="url(#paint2_linear)"/>
<path d="M100.032 93.1857C103.104 93.1857 106.177 92.0167 108.516 89.6778C109.35 88.8417 109.35 87.4882 108.516 86.6521C107.681 85.8172 106.326 85.8172 105.491 86.6521C102.481 89.6624 97.583 89.6635 94.5728 86.6521C93.7367 85.8172 92.3832 85.8172 91.5471 86.6521C90.7122 87.4882 90.7122 88.8417 91.5471 89.6778C93.8861 92.0167 96.959 93.1857 100.032 93.1857Z" fill="url(#paint3_linear)"/>
<path d="M51.817 58.512V53.4869C57.7969 49.3637 61.3312 42.6719 61.3312 35.3507C61.3312 23.1943 51.4435 13.3055 39.2893 13.3055C27.134 13.3055 17.2441 23.1943 17.2441 35.3507C17.2441 42.6719 20.7806 49.3637 26.7605 53.4869V58.512C26.7605 63.892 31.1385 68.2701 36.5186 68.2701H42.059C47.4401 68.2701 51.817 63.892 51.817 58.512ZM21.5222 35.3507C21.5222 25.553 29.4928 17.5836 39.2893 17.5836C49.0847 17.5836 57.0542 25.553 57.0542 35.3507C57.0542 41.3832 54.0758 46.8885 49.0573 50.1921H45.9745V37.7665C45.9745 36.5855 45.0165 35.6275 43.8354 35.6275C42.6544 35.6275 41.6964 36.5855 41.6964 37.7665V50.1921H36.88V37.7665C36.88 36.5855 35.922 35.6275 34.741 35.6275C33.5588 35.6275 32.6019 36.5855 32.6019 37.7665V50.1921H29.5214C24.5006 46.8885 21.5222 41.3843 21.5222 35.3507ZM47.5389 58.512C47.5389 61.5333 45.0802 63.992 42.059 63.992H36.5186C33.4973 63.992 31.0386 61.5333 31.0386 58.512V54.4691H34.7399H34.741H34.7421H43.8344H43.8354H43.8365H47.5389V58.512Z" fill="url(#paint4_linear)"/>
<path d="M14.1812 35.3506C14.1812 34.1695 13.2231 33.2115 12.0421 33.2115H6.07654C4.89551 33.2115 3.9375 34.1695 3.9375 35.3506C3.9375 36.5316 4.89551 37.4896 6.07654 37.4896H12.0421C13.2231 37.4896 14.1812 36.5316 14.1812 35.3506Z" fill="url(#paint5_linear)"/>
<path d="M62.8856 23.8666C63.2481 23.8666 63.6162 23.7744 63.9535 23.5799L69.1192 20.5971C70.1421 20.006 70.4925 18.6976 69.9026 17.6747C69.3115 16.6519 68.003 16.3015 66.9802 16.8925L61.8144 19.8753C60.7916 20.4653 60.44 21.7737 61.0311 22.7966C61.4277 23.4832 62.1462 23.8666 62.8856 23.8666Z" fill="url(#paint6_linear)"/>
<path d="M14.6233 47.1213L9.45748 50.1041C8.43466 50.694 8.08419 52.0025 8.67416 53.0253C9.07076 53.712 9.78927 54.0954 10.5287 54.0954C10.8912 54.0954 11.2592 54.0031 11.5965 53.8087L16.7623 50.8259C17.7851 50.2348 18.1356 48.9263 17.5456 47.9035C16.9546 46.8807 15.6461 46.5302 14.6233 47.1213Z" fill="url(#paint7_linear)"/>
<path d="M51.8409 13.6065C52.1782 13.801 52.5463 13.8944 52.9088 13.8944C53.6482 13.8944 54.3667 13.5099 54.7633 12.8243L57.7461 7.65745C58.3372 6.63463 57.9856 5.32725 56.9628 4.73619C55.9399 4.14512 54.6315 4.49559 54.0415 5.51951L51.0587 10.6853C50.4677 11.7081 50.8181 13.0166 51.8409 13.6065Z" fill="url(#paint8_linear)"/>
<path d="M39.2885 10.2437C40.4695 10.2437 41.4275 9.28564 41.4275 8.10461V2.13904C41.4275 0.958008 40.4695 0 39.2885 0C38.1074 0 37.1494 0.958008 37.1494 2.13904V8.10461C37.1494 9.28564 38.1074 10.2437 39.2885 10.2437Z" fill="url(#paint9_linear)"/>
<path d="M23.8129 12.8243C24.2085 13.5099 24.9281 13.8944 25.6674 13.8944C26.03 13.8944 26.398 13.801 26.7342 13.6065C27.757 13.0166 28.1075 11.7081 27.5175 10.6853L24.5348 5.51951C23.9437 4.49559 22.6363 4.14512 21.6135 4.73619C20.5896 5.32725 20.2391 6.63463 20.8302 7.65745L23.8129 12.8243Z" fill="url(#paint10_linear)"/>
<path d="M9.45724 20.5971L14.623 23.5799C14.9592 23.7744 15.3272 23.8666 15.6909 23.8666C16.4292 23.8666 17.1488 23.4832 17.5443 22.7966C18.1353 21.7737 17.7849 20.4653 16.762 19.8753L11.5952 16.8925C10.5723 16.3015 9.26388 16.6519 8.67391 17.6747C8.08285 18.6976 8.43331 20.006 9.45724 20.5971Z" fill="url(#paint11_linear)"/>
</g>
<defs>
<linearGradient id="paint0_linear" x1="110.14" y1="69.8585" x2="110.14" y2="78.085" gradientUnits="userSpaceOnUse">
<stop stop-color="#16CBFF"/>
<stop offset="1" stop-color="#125BFB"/>
</linearGradient>
<linearGradient id="paint1_linear" x1="89.9227" y1="69.8585" x2="89.9227" y2="78.085" gradientUnits="userSpaceOnUse">
<stop stop-color="#16CBFF"/>
<stop offset="1" stop-color="#125BFB"/>
</linearGradient>
<linearGradient id="paint2_linear" x1="93.6448" y1="16.5205" x2="93.6448" y2="144.001" gradientUnits="userSpaceOnUse">
<stop stop-color="#16CBFF"/>
<stop offset="1" stop-color="#125BFB"/>
</linearGradient>
<linearGradient id="paint3_linear" x1="100.031" y1="86.0259" x2="100.031" y2="93.1857" gradientUnits="userSpaceOnUse">
<stop stop-color="#16CBFF"/>
<stop offset="1" stop-color="#125BFB"/>
</linearGradient>
<linearGradient id="paint4_linear" x1="39.2877" y1="13.3055" x2="39.2877" y2="68.2701" gradientUnits="userSpaceOnUse">
<stop stop-color="#16CBFF"/>
<stop offset="1" stop-color="#125BFB"/>
</linearGradient>
<linearGradient id="paint5_linear" x1="9.05933" y1="33.2115" x2="9.05933" y2="37.4896" gradientUnits="userSpaceOnUse">
<stop stop-color="#16CBFF"/>
<stop offset="1" stop-color="#125BFB"/>
</linearGradient>
<linearGradient id="paint6_linear" x1="65.4666" y1="16.6053" x2="65.4666" y2="23.8666" gradientUnits="userSpaceOnUse">
<stop stop-color="#16CBFF"/>
<stop offset="1" stop-color="#125BFB"/>
</linearGradient>
<linearGradient id="paint7_linear" x1="13.1099" y1="46.834" x2="13.1099" y2="54.0954" gradientUnits="userSpaceOnUse">
<stop stop-color="#16CBFF"/>
<stop offset="1" stop-color="#125BFB"/>
</linearGradient>
<linearGradient id="paint8_linear" x1="54.4023" y1="4.449" x2="54.4023" y2="13.8944" gradientUnits="userSpaceOnUse">
<stop stop-color="#16CBFF"/>
<stop offset="1" stop-color="#125BFB"/>
</linearGradient>
<linearGradient id="paint9_linear" x1="39.2885" y1="0" x2="39.2885" y2="10.2437" gradientUnits="userSpaceOnUse">
<stop stop-color="#16CBFF"/>
<stop offset="1" stop-color="#125BFB"/>
</linearGradient>
<linearGradient id="paint10_linear" x1="24.1735" y1="4.449" x2="24.1735" y2="13.8944" gradientUnits="userSpaceOnUse">
<stop stop-color="#16CBFF"/>
<stop offset="1" stop-color="#125BFB"/>
</linearGradient>
<linearGradient id="paint11_linear" x1="13.1091" y1="16.6053" x2="13.1091" y2="23.8666" gradientUnits="userSpaceOnUse">
<stop stop-color="#16CBFF"/>
<stop offset="1" stop-color="#125BFB"/>
</linearGradient>
<clipPath id="clip0">
<rect width="144" height="144" fill="white"/>
</clipPath>
</defs>
</svg>
