<svg width="184" height="196" viewBox="0 0 184 196" fill="none" xmlns="http://www.w3.org/2000/svg">
<path d="M13.6304 153.536C14.6704 153.865 15.4851 154.42 16.0744 155.2C16.6637 155.963 16.9584 156.907 16.9584 158.034C16.9584 159.629 16.3344 160.859 15.0864 161.726C13.8557 162.575 12.0531 163 9.6784 163H0.266399V144.8H9.1584C11.3771 144.8 13.0757 145.225 14.2544 146.074C15.4504 146.923 16.0484 148.076 16.0484 149.532C16.0484 150.416 15.8317 151.205 15.3984 151.898C14.9824 152.591 14.3931 153.137 13.6304 153.536ZM4.4524 147.972V152.262H8.6384C9.6784 152.262 10.4671 152.08 11.0044 151.716C11.5417 151.352 11.8104 150.815 11.8104 150.104C11.8104 149.393 11.5417 148.865 11.0044 148.518C10.4671 148.154 9.6784 147.972 8.6384 147.972H4.4524ZM9.3664 159.828C10.4757 159.828 11.3077 159.646 11.8624 159.282C12.4344 158.918 12.7204 158.355 12.7204 157.592C12.7204 156.084 11.6024 155.33 9.3664 155.33H4.4524V159.828H9.3664ZM33.5633 156.058C33.5633 156.11 33.5373 156.474 33.4853 157.15H22.9033C23.0939 158.017 23.5446 158.701 24.2553 159.204C24.9659 159.707 25.8499 159.958 26.9073 159.958C27.6353 159.958 28.2766 159.854 28.8313 159.646C29.4033 159.421 29.9319 159.074 30.4173 158.606L32.5753 160.946C31.2579 162.454 29.3339 163.208 26.8033 163.208C25.2259 163.208 23.8306 162.905 22.6173 162.298C21.4039 161.674 20.4679 160.816 19.8093 159.724C19.1506 158.632 18.8213 157.393 18.8213 156.006C18.8213 154.637 19.1419 153.406 19.7833 152.314C20.4419 151.205 21.3346 150.347 22.4613 149.74C23.6053 149.116 24.8793 148.804 26.2833 148.804C27.6526 148.804 28.8919 149.099 30.0013 149.688C31.1106 150.277 31.9773 151.127 32.6013 152.236C33.2426 153.328 33.5633 154.602 33.5633 156.058ZM26.3093 151.872C25.3906 151.872 24.6193 152.132 23.9953 152.652C23.3713 153.172 22.9899 153.883 22.8513 154.784H29.7413C29.6026 153.9 29.2213 153.198 28.5973 152.678C27.9733 152.141 27.2106 151.872 26.3093 151.872ZM40.9696 163.208C39.8083 163.208 38.6729 163.069 37.5636 162.792C36.4543 162.497 35.5703 162.133 34.9116 161.7L36.2636 158.788C36.8876 159.187 37.6416 159.516 38.5256 159.776C39.4096 160.019 40.2763 160.14 41.1256 160.14C42.8416 160.14 43.6996 159.715 43.6996 158.866C43.6996 158.467 43.4656 158.181 42.9976 158.008C42.5296 157.835 41.8103 157.687 40.8396 157.566C39.6956 157.393 38.7509 157.193 38.0056 156.968C37.2603 156.743 36.6103 156.344 36.0556 155.772C35.5183 155.2 35.2496 154.385 35.2496 153.328C35.2496 152.444 35.5009 151.664 36.0036 150.988C36.5236 150.295 37.2689 149.757 38.2396 149.376C39.2276 148.995 40.3889 148.804 41.7236 148.804C42.7116 148.804 43.6909 148.917 44.6616 149.142C45.6496 149.35 46.4643 149.645 47.1056 150.026L45.7536 152.912C44.5229 152.219 43.1796 151.872 41.7236 151.872C40.8569 151.872 40.2069 151.993 39.7736 152.236C39.3403 152.479 39.1236 152.791 39.1236 153.172C39.1236 153.605 39.3576 153.909 39.8256 154.082C40.2936 154.255 41.0389 154.42 42.0616 154.576C43.2056 154.767 44.1416 154.975 44.8696 155.2C45.5976 155.408 46.2303 155.798 46.7676 156.37C47.3049 156.942 47.5736 157.739 47.5736 158.762C47.5736 159.629 47.3136 160.4 46.7936 161.076C46.2736 161.752 45.5109 162.281 44.5056 162.662C43.5176 163.026 42.3389 163.208 40.9696 163.208ZM59.0981 162.324C58.6994 162.619 58.2054 162.844 57.6161 163C57.0441 163.139 56.4374 163.208 55.7961 163.208C54.1321 163.208 52.8408 162.783 51.9221 161.934C51.0208 161.085 50.5701 159.837 50.5701 158.19V152.444H48.4121V149.324H50.5701V145.918H54.6261V149.324H58.1101V152.444H54.6261V158.138C54.6261 158.727 54.7734 159.187 55.0681 159.516C55.3801 159.828 55.8134 159.984 56.3681 159.984C57.0094 159.984 57.5554 159.811 58.0061 159.464L59.0981 162.324ZM73.2362 148.18V152.99H81.6602V156.37H73.2362V163H69.0242V144.8H82.7782V148.18H73.2362ZM88.9638 150.858C89.4491 150.182 90.0991 149.671 90.9138 149.324C91.7458 148.977 92.6991 148.804 93.7738 148.804V152.548C93.3231 152.513 93.0198 152.496 92.8638 152.496C91.7024 152.496 90.7924 152.825 90.1338 153.484C89.4751 154.125 89.1458 155.096 89.1458 156.396V163H85.0898V149.012H88.9638V150.858ZM109.761 156.058C109.761 156.11 109.735 156.474 109.683 157.15H99.1005C99.2912 158.017 99.7419 158.701 100.453 159.204C101.163 159.707 102.047 159.958 103.105 159.958C103.833 159.958 104.474 159.854 105.029 159.646C105.601 159.421 106.129 159.074 106.615 158.606L108.773 160.946C107.455 162.454 105.531 163.208 103.001 163.208C101.423 163.208 100.028 162.905 98.8145 162.298C97.6012 161.674 96.6652 160.816 96.0065 159.724C95.3479 158.632 95.0185 157.393 95.0185 156.006C95.0185 154.637 95.3392 153.406 95.9805 152.314C96.6392 151.205 97.5319 150.347 98.6585 149.74C99.8025 149.116 101.077 148.804 102.481 148.804C103.85 148.804 105.089 149.099 106.199 149.688C107.308 150.277 108.175 151.127 108.799 152.236C109.44 153.328 109.761 154.602 109.761 156.058ZM102.507 151.872C101.588 151.872 100.817 152.132 100.193 152.652C99.5685 153.172 99.1872 153.883 99.0485 154.784H105.939C105.8 153.9 105.419 153.198 104.795 152.678C104.171 152.141 103.408 151.872 102.507 151.872ZM117.167 163.208C116.006 163.208 114.87 163.069 113.761 162.792C112.652 162.497 111.768 162.133 111.109 161.7L112.461 158.788C113.085 159.187 113.839 159.516 114.723 159.776C115.607 160.019 116.474 160.14 117.323 160.14C119.039 160.14 119.897 159.715 119.897 158.866C119.897 158.467 119.663 158.181 119.195 158.008C118.727 157.835 118.008 157.687 117.037 157.566C115.893 157.393 114.948 157.193 114.203 156.968C113.458 156.743 112.808 156.344 112.253 155.772C111.716 155.2 111.447 154.385 111.447 153.328C111.447 152.444 111.698 151.664 112.201 150.988C112.721 150.295 113.466 149.757 114.437 149.376C115.425 148.995 116.586 148.804 117.921 148.804C118.909 148.804 119.888 148.917 120.859 149.142C121.847 149.35 122.662 149.645 123.303 150.026L121.951 152.912C120.72 152.219 119.377 151.872 117.921 151.872C117.054 151.872 116.404 151.993 115.971 152.236C115.538 152.479 115.321 152.791 115.321 153.172C115.321 153.605 115.555 153.909 116.023 154.082C116.491 154.255 117.236 154.42 118.259 154.576C119.403 154.767 120.339 154.975 121.067 155.2C121.795 155.408 122.428 155.798 122.965 156.37C123.502 156.942 123.771 157.739 123.771 158.762C123.771 159.629 123.511 160.4 122.991 161.076C122.471 161.752 121.708 162.281 120.703 162.662C119.715 163.026 118.536 163.208 117.167 163.208ZM134.775 148.804C136.509 148.804 137.904 149.324 138.961 150.364C140.036 151.404 140.573 152.947 140.573 154.992V163H136.517V155.616C136.517 154.507 136.275 153.683 135.789 153.146C135.304 152.591 134.602 152.314 133.683 152.314C132.661 152.314 131.846 152.635 131.239 153.276C130.633 153.9 130.329 154.836 130.329 156.084V163H126.273V143.708H130.329V150.468C130.867 149.931 131.517 149.523 132.279 149.246C133.042 148.951 133.874 148.804 134.775 148.804ZM158.104 156.058C158.104 156.11 158.078 156.474 158.026 157.15H147.444C147.635 158.017 148.086 158.701 148.796 159.204C149.507 159.707 150.391 159.958 151.448 159.958C152.176 159.958 152.818 159.854 153.372 159.646C153.944 159.421 154.473 159.074 154.958 158.606L157.116 160.946C155.799 162.454 153.875 163.208 151.344 163.208C149.767 163.208 148.372 162.905 147.158 162.298C145.945 161.674 145.009 160.816 144.35 159.724C143.692 158.632 143.362 157.393 143.362 156.006C143.362 154.637 143.683 153.406 144.324 152.314C144.983 151.205 145.876 150.347 147.002 149.74C148.146 149.116 149.42 148.804 150.824 148.804C152.194 148.804 153.433 149.099 154.542 149.688C155.652 150.277 156.518 151.127 157.142 152.236C157.784 153.328 158.104 154.602 158.104 156.058ZM150.85 151.872C149.932 151.872 149.16 152.132 148.536 152.652C147.912 153.172 147.531 153.883 147.392 154.784H154.282C154.144 153.9 153.762 153.198 153.138 152.678C152.514 152.141 151.752 151.872 150.85 151.872ZM164.679 150.858C165.164 150.182 165.814 149.671 166.629 149.324C167.461 148.977 168.414 148.804 169.489 148.804V152.548C169.038 152.513 168.735 152.496 168.579 152.496C167.417 152.496 166.507 152.825 165.849 153.484C165.19 154.125 164.861 155.096 164.861 156.396V163H160.805V149.012H164.679V150.858ZM176.657 163.208C175.496 163.208 174.36 163.069 173.251 162.792C172.142 162.497 171.258 162.133 170.599 161.7L171.951 158.788C172.575 159.187 173.329 159.516 174.213 159.776C175.097 160.019 175.964 160.14 176.813 160.14C178.529 160.14 179.387 159.715 179.387 158.866C179.387 158.467 179.153 158.181 178.685 158.008C178.217 157.835 177.498 157.687 176.527 157.566C175.383 157.393 174.438 157.193 173.693 156.968C172.948 156.743 172.298 156.344 171.743 155.772C171.206 155.2 170.937 154.385 170.937 153.328C170.937 152.444 171.188 151.664 171.691 150.988C172.211 150.295 172.956 149.757 173.927 149.376C174.915 148.995 176.076 148.804 177.411 148.804C178.399 148.804 179.378 148.917 180.349 149.142C181.337 149.35 182.152 149.645 182.793 150.026L181.441 152.912C180.21 152.219 178.867 151.872 177.411 151.872C176.544 151.872 175.894 151.993 175.461 152.236C175.028 152.479 174.811 152.791 174.811 153.172C174.811 153.605 175.045 153.909 175.513 154.082C175.981 154.255 176.726 154.42 177.749 154.576C178.893 154.767 179.829 154.975 180.557 155.2C181.285 155.408 181.918 155.798 182.455 156.37C182.992 156.942 183.261 157.739 183.261 158.762C183.261 159.629 183.001 160.4 182.481 161.076C181.961 161.752 181.198 162.281 180.193 162.662C179.205 163.026 178.026 163.208 176.657 163.208ZM59.9339 180.232H54.1099V176.8H69.9699V180.232H64.1459V195H59.9339V180.232ZM84.2303 188.058C84.2303 188.11 84.2043 188.474 84.1523 189.15H73.5703C73.7609 190.017 74.2116 190.701 74.9223 191.204C75.6329 191.707 76.5169 191.958 77.5743 191.958C78.3023 191.958 78.9436 191.854 79.4983 191.646C80.0703 191.421 80.5989 191.074 81.0843 190.606L83.2423 192.946C81.9249 194.454 80.0009 195.208 77.4703 195.208C75.8929 195.208 74.4976 194.905 73.2843 194.298C72.0709 193.674 71.1349 192.816 70.4763 191.724C69.8176 190.632 69.4883 189.393 69.4883 188.006C69.4883 186.637 69.8089 185.406 70.4503 184.314C71.1089 183.205 72.0016 182.347 73.1283 181.74C74.2723 181.116 75.5463 180.804 76.9503 180.804C78.3196 180.804 79.5589 181.099 80.6683 181.688C81.7776 182.277 82.6443 183.127 83.2683 184.236C83.9096 185.328 84.2303 186.602 84.2303 188.058ZM76.9763 183.872C76.0576 183.872 75.2863 184.132 74.6623 184.652C74.0383 185.172 73.6569 185.883 73.5183 186.784H80.4083C80.2696 185.9 79.8883 185.198 79.2643 184.678C78.6403 184.141 77.8776 183.872 76.9763 183.872ZM92.1917 180.804C94.3584 180.804 96.0224 181.324 97.1837 182.364C98.3451 183.387 98.9257 184.938 98.9257 187.018V195H95.1297V193.258C94.3671 194.558 92.9457 195.208 90.8657 195.208C89.7911 195.208 88.8551 195.026 88.0577 194.662C87.2777 194.298 86.6797 193.795 86.2637 193.154C85.8477 192.513 85.6397 191.785 85.6397 190.97C85.6397 189.67 86.1251 188.647 87.0957 187.902C88.0837 187.157 89.6004 186.784 91.6457 186.784H94.8697C94.8697 185.9 94.6011 185.224 94.0637 184.756C93.5264 184.271 92.7204 184.028 91.6457 184.028C90.9004 184.028 90.1637 184.149 89.4357 184.392C88.7251 184.617 88.1184 184.929 87.6157 185.328L86.1597 182.494C86.9224 181.957 87.8324 181.541 88.8897 181.246C89.9644 180.951 91.0651 180.804 92.1917 180.804ZM91.8797 192.478C92.5731 192.478 93.1884 192.322 93.7257 192.01C94.2631 191.681 94.6444 191.204 94.8697 190.58V189.15H92.0877C90.4237 189.15 89.5917 189.696 89.5917 190.788C89.5917 191.308 89.7911 191.724 90.1897 192.036C90.6057 192.331 91.1691 192.478 91.8797 192.478ZM120.511 180.804C122.261 180.804 123.648 181.324 124.671 182.364C125.711 183.387 126.231 184.929 126.231 186.992V195H122.175V187.616C122.175 186.507 121.941 185.683 121.473 185.146C121.022 184.591 120.372 184.314 119.523 184.314C118.569 184.314 117.815 184.626 117.261 185.25C116.706 185.857 116.429 186.767 116.429 187.98V195H112.373V187.616C112.373 185.415 111.489 184.314 109.721 184.314C108.785 184.314 108.039 184.626 107.485 185.25C106.93 185.857 106.653 186.767 106.653 187.98V195H102.597V181.012H106.471V182.624C106.991 182.035 107.623 181.584 108.369 181.272C109.131 180.96 109.963 180.804 110.865 180.804C111.853 180.804 112.745 181.003 113.543 181.402C114.34 181.783 114.981 182.347 115.467 183.092C116.039 182.364 116.758 181.801 117.625 181.402C118.509 181.003 119.471 180.804 120.511 180.804Z" fill="white"/>
<g clip-path="url(#clip0)">
<path d="M76.7437 20.5162C76.7897 19.9791 76.858 19.4468 76.858 18.9C76.858 8.47796 68.3127 0 57.808 0C47.3032 0 38.7579 8.47796 38.7579 18.9C38.7579 19.4468 38.8262 19.9789 38.8722 20.5162C33.6899 23.0569 30.291 28.3119 30.291 34.125V37.8C30.291 38.5956 30.7437 39.3217 31.461 39.6785C31.7608 39.8262 32.0852 39.9 32.4077 39.9C32.8562 39.9 33.3049 39.7585 33.6769 39.4795L42.1436 33.1795L39.6051 29.8203L34.5368 33.5895C34.7167 29.9759 36.7119 26.7217 39.747 24.8259C41.2927 29.4835 44.606 33.4078 49.1254 35.7H45.1077H41.9512C39.1318 35.7 36.6204 37.5784 35.8452 40.2691L32.4884 51.9235C32.3063 52.5572 32.4347 53.2381 32.8337 53.7653C33.2348 54.2902 33.861 54.6 34.5246 54.6V62.7601L32.2839 72.3558C31.6473 74.0701 31.7589 75.9712 32.6 77.6037C33.325 79.0093 34.5453 80.0659 35.9957 80.6526L32.5482 89.5453C32.2981 90.1913 32.3849 90.9192 32.7797 91.4894C33.1744 92.0595 33.8277 92.4 34.5244 92.4H42.991V116.302C41.6901 117.779 40.8744 119.688 40.8744 121.8V123.9C40.8744 125.061 41.821 126 42.991 126H55.691C56.861 126 57.8077 125.061 57.8077 123.9C57.8077 125.061 58.7544 126 59.9244 126H72.6244C73.7943 126 74.741 125.061 74.741 123.9V121.8C74.741 119.688 73.9253 117.78 72.6244 116.302V92.4H81.091C81.7877 92.4 82.4409 92.0595 82.8357 91.4894C83.2304 90.9192 83.3172 90.1913 83.0672 89.5453L79.6197 80.6526C81.072 80.0643 82.2912 79.0083 83.0153 77.6037C83.8567 75.9712 83.9684 74.0701 83.3315 72.3558L81.0908 62.7601V54.6C81.7543 54.6 82.3806 54.2902 82.7817 53.7653C83.1807 53.2381 83.3088 52.5572 83.127 51.9235L79.77 40.2691C78.9947 37.5784 76.4833 35.7 73.6639 35.7H70.5074H66.4897C71.0091 33.4078 74.3225 29.4835 75.8682 24.8262C78.9032 26.7222 80.8987 29.9764 81.0783 33.5898L76.01 29.8205L73.4716 33.1797L81.9382 39.4797C82.3102 39.7588 82.7568 39.9003 83.2074 39.9003C83.53 39.9003 83.8543 39.8265 84.1541 39.6787C84.8714 39.322 85.3241 38.5959 85.3241 37.8003V34.1253C85.3244 28.3119 81.9255 23.0569 76.7437 20.5162ZM57.8077 4.2C65.1359 4.2 71.2234 9.513 72.4024 16.4561C69.4351 15.6366 67.0496 13.3221 66.2725 10.2333L66.2085 9.98314C66.0225 9.25102 65.452 8.67484 64.7181 8.47586C63.9905 8.27085 63.201 8.47796 62.6615 9.0153L57.3719 14.2632C55.7468 15.8752 53.4958 16.8 51.1995 16.8H43.1601C44.193 9.68887 50.3591 4.2 57.8077 4.2ZM39.9174 41.4217C40.1737 40.5255 41.0109 39.9 41.9515 39.9H42.9913V50.4H37.3316L39.9174 41.4217ZM36.3682 75.6903C36.0539 75.0792 36.0208 74.3901 36.2793 73.7502C36.3185 73.6517 36.3516 73.5491 36.3764 73.4446L38.704 63.4738C38.7392 63.3179 38.7577 63.1601 38.7577 63V54.6H42.991V62.6078L37.5229 76.713C37.0379 76.4977 36.6183 76.1733 36.3682 75.6903ZM45.1077 121.8C45.1077 119.485 47.0074 117.6 49.341 117.6C51.6746 117.6 53.5744 119.485 53.5744 121.8H45.1077ZM47.2244 113.698V92.4H51.4577V113.698C50.7772 113.523 50.0763 113.4 49.341 113.4C48.6057 113.4 47.9049 113.523 47.2244 113.698ZM59.9244 116.302C58.6234 117.779 57.8077 119.688 57.8077 121.8C57.8077 119.688 56.992 117.78 55.691 116.302V92.4H59.9244V116.302ZM62.041 121.8C62.041 119.485 63.9407 117.6 66.2744 117.6C68.608 117.6 70.5077 119.485 70.5077 121.8H62.041ZM64.1577 113.698V92.4H68.391V113.698C67.7105 113.523 67.0096 113.4 66.2744 113.4C65.5391 113.4 64.8382 113.523 64.1577 113.698ZM72.6244 39.9H73.6642C74.6048 39.9 75.4419 40.5255 75.6983 41.4217L78.2841 50.4H72.6244V39.9ZM72.6244 54.6H76.8577V63C76.8577 63.1599 76.8762 63.3179 76.9114 63.4738L79.2389 73.4446C79.2638 73.5491 79.2969 73.6517 79.336 73.7502C79.5945 74.3901 79.5615 75.0792 79.2472 75.6903C78.9979 76.172 78.5785 76.4962 78.0922 76.713L72.6241 62.6081V54.6H72.6244ZM78.0092 88.2H37.6065L46.561 65.1H69.0549L78.0092 88.2ZM68.391 39.9V60.9H47.2244V39.9H49.341V50.4C49.341 51.5608 50.2877 52.5 51.4577 52.5H64.1577C65.3277 52.5 66.2744 51.5608 66.2744 50.4V39.9H68.391ZM53.5744 48.3V41.6708C54.9269 42.2231 56.366 42.5045 57.8077 42.5045C59.2494 42.5045 60.6885 42.2229 62.041 41.6708V48.3H53.5744ZM63.3618 32.5214C62.5638 32.8435 62.041 33.6123 62.041 34.4676V36.8175C59.5592 38.7613 56.0561 38.7613 53.5744 36.8175V34.4676C53.5744 33.6123 53.0513 32.8432 52.2536 32.5214C47.2926 30.5269 43.8874 26.1329 43.1492 21H51.1992C54.6615 21 57.9172 19.6628 60.3646 17.2326L63.3473 14.2753C65.2144 17.7025 68.5789 20.0988 72.4825 20.7813C71.8102 26.0064 68.3921 30.4991 63.3618 32.5214Z" fill="url(#paint0_linear)"/>
<path d="M146.627 51.9239L143.27 40.2694C142.495 37.5788 139.984 35.7003 137.164 35.7003H134.008H130.025C136.354 32.4787 140.358 26.0577 140.358 18.9003C140.358 8.4783 131.813 0.000335693 121.308 0.000335693C110.803 0.000335693 102.258 8.4783 102.258 18.9003C102.258 26.0577 106.262 32.4787 112.591 35.7003H108.608H105.451C102.632 35.7003 100.121 37.5788 99.3454 40.2694L95.9883 51.9239C95.8063 52.5576 95.9346 53.2385 96.3336 53.7656C96.7347 54.2906 97.361 54.6004 98.0246 54.6004V62.8507L97.1255 69.0893C96.739 71.7841 97.5473 74.5094 99.3456 76.5664C100.565 77.96 102.17 78.9097 103.923 79.4032L102.283 89.9806C102.188 90.5878 102.366 91.2028 102.769 91.6685C103.17 92.1339 103.757 92.4006 104.375 92.4006H106.491V116.303C105.191 117.78 104.375 119.689 104.375 121.801V123.901C104.375 125.061 105.322 126.001 106.491 126.001H119.191C120.361 126.001 121.308 125.061 121.308 123.901C121.308 125.061 122.255 126.001 123.425 126.001H136.125C137.295 126.001 138.241 125.061 138.241 123.901V121.801C138.241 119.689 137.426 117.78 136.125 116.303V92.4001H138.241C138.86 92.4001 139.447 92.1334 139.848 91.668C140.25 91.2026 140.428 90.5873 140.333 89.9801L138.693 79.4027C140.446 78.9094 142.051 77.9594 143.271 76.5658C145.069 74.5089 145.877 71.7833 145.491 69.0867L144.592 62.8502V54.6001C145.255 54.6001 145.882 54.2903 146.283 53.7653C146.681 53.2385 146.809 52.5576 146.627 51.9239ZM131.891 39.9001V40.8761L127.927 43.4971L125.226 40.8173L127.999 39.9001H131.891ZM121.308 4.20007C128.636 4.20007 134.724 9.51308 135.903 16.4562C132.936 15.6367 130.55 13.3222 129.773 10.2334L129.709 9.98321C129.523 9.2511 128.952 8.67491 128.219 8.47594C127.491 8.27093 126.701 8.47804 126.162 9.01538L120.872 14.2633C119.247 15.8753 116.996 16.8001 114.7 16.8001H106.661C107.693 9.68895 113.86 4.20007 121.308 4.20007ZM106.65 21.0001H114.7C118.162 21.0001 121.418 19.6629 123.865 17.2327L126.848 14.2754C128.715 17.7026 132.079 20.0989 135.983 20.7814C135.31 26.0062 131.893 30.4992 126.862 32.5212C126.064 32.8433 125.541 33.6122 125.541 34.4674V36.287L121.308 37.6869L117.075 36.287V34.4674C117.075 33.6122 116.552 32.843 115.754 32.5212C110.793 30.527 107.388 26.1327 106.65 21.0001ZM110.725 39.9001H114.617L117.39 40.8173L114.689 43.4971L110.725 40.8761V39.9001ZM110.725 45.9239L113.784 47.9473C114.621 48.5051 115.74 48.3943 116.455 47.6848L121.308 42.8695L126.162 47.6848C126.571 48.0909 127.113 48.3001 127.658 48.3001C128.066 48.3001 128.475 48.1851 128.833 47.9473L131.892 45.9239V60.9001H123.425V46.2001H119.192V60.9001H110.725V45.9239H110.725ZM106.491 62.8402L104.572 75.2153C103.803 74.9123 103.1 74.4485 102.543 73.814C101.551 72.6758 101.103 71.1707 101.318 69.6818L102.238 63.2978C102.252 63.1993 102.258 63.0988 102.258 63.0004V54.6004H106.491V62.8402ZM106.491 50.4001H100.832L103.418 41.4218C103.674 40.5256 104.511 39.9001 105.452 39.9001H106.491V50.4001ZM108.608 121.8C108.608 119.485 110.508 117.6 112.841 117.6C115.175 117.6 117.075 119.485 117.075 121.8H108.608ZM110.725 113.698V92.4001H114.958V113.698C114.278 113.523 113.577 113.4 112.841 113.4C112.106 113.4 111.405 113.523 110.725 113.698ZM123.425 116.302C122.124 117.779 121.308 119.688 121.308 121.8C121.308 119.689 120.492 117.78 119.191 116.302V92.4001H123.425V116.302ZM125.541 121.8C125.541 119.485 127.441 117.6 129.775 117.6C132.108 117.6 134.008 119.485 134.008 121.8H125.541ZM127.658 113.698V92.4001H131.891V113.698C131.211 113.523 130.51 113.4 129.775 113.4C129.04 113.4 128.339 113.523 127.658 113.698ZM123.425 88.2001V75.6001H119.191V88.2001H106.843L110.424 65.1001H132.192L135.773 88.2001H123.425ZM140.073 73.8138C139.517 74.4482 138.814 74.9121 138.044 75.215L136.125 62.84V54.6001H140.358V63.0001C140.358 63.0985 140.364 63.1991 140.379 63.2975L141.299 69.6797C141.514 71.1704 141.065 72.6756 140.073 73.8138ZM136.125 50.4001V39.9001H137.165C138.105 39.9001 138.942 40.5256 139.199 41.4218L141.785 50.4001H136.125Z" fill="url(#paint1_linear)"/>
</g>
<defs>
<linearGradient id="paint0_linear" x1="57.8076" y1="0" x2="57.8076" y2="126" gradientUnits="userSpaceOnUse">
<stop stop-color="#16D6FF"/>
<stop offset="1" stop-color="#1034FA"/>
</linearGradient>
<linearGradient id="paint1_linear" x1="121.308" y1="0.000335693" x2="121.308" y2="126.001" gradientUnits="userSpaceOnUse">
<stop stop-color="#16D6FF"/>
<stop offset="1" stop-color="#1034FA"/>
</linearGradient>
<clipPath id="clip0">
<rect width="127" height="126" fill="white" transform="translate(25)"/>
</clipPath>
</defs>
</svg>
