<svg width="144" height="192" viewBox="0 0 144 192" fill="none" xmlns="http://www.w3.org/2000/svg">
<path d="M19.7866 181.536C20.8266 181.865 21.6413 182.42 22.2306 183.2C22.82 183.963 23.1146 184.907 23.1146 186.034C23.1146 187.629 22.4906 188.859 21.2426 189.726C20.012 190.575 18.2093 191 15.8346 191H6.42265V172.8H15.3146C17.5333 172.8 19.232 173.225 20.4106 174.074C21.6066 174.923 22.2046 176.076 22.2046 177.532C22.2046 178.416 21.988 179.205 21.5546 179.898C21.1386 180.591 20.5493 181.137 19.7866 181.536ZM10.6086 175.972V180.262H14.7946C15.8346 180.262 16.6233 180.08 17.1606 179.716C17.698 179.352 17.9666 178.815 17.9666 178.104C17.9666 177.393 17.698 176.865 17.1606 176.518C16.6233 176.154 15.8346 175.972 14.7946 175.972H10.6086ZM15.5226 187.828C16.632 187.828 17.464 187.646 18.0186 187.282C18.5906 186.918 18.8766 186.355 18.8766 185.592C18.8766 184.084 17.7586 183.33 15.5226 183.33H10.6086V187.828H15.5226ZM39.7195 184.058C39.7195 184.11 39.6935 184.474 39.6415 185.15H29.0595C29.2502 186.017 29.7008 186.701 30.4115 187.204C31.1222 187.707 32.0062 187.958 33.0635 187.958C33.7915 187.958 34.4328 187.854 34.9875 187.646C35.5595 187.421 36.0882 187.074 36.5735 186.606L38.7315 188.946C37.4142 190.454 35.4902 191.208 32.9595 191.208C31.3822 191.208 29.9868 190.905 28.7735 190.298C27.5602 189.674 26.6242 188.816 25.9655 187.724C25.3068 186.632 24.9775 185.393 24.9775 184.006C24.9775 182.637 25.2982 181.406 25.9395 180.314C26.5982 179.205 27.4908 178.347 28.6175 177.74C29.7615 177.116 31.0355 176.804 32.4395 176.804C33.8088 176.804 35.0482 177.099 36.1575 177.688C37.2668 178.277 38.1335 179.127 38.7575 180.236C39.3988 181.328 39.7195 182.602 39.7195 184.058ZM32.4655 179.872C31.5468 179.872 30.7755 180.132 30.1515 180.652C29.5275 181.172 29.1462 181.883 29.0075 182.784H35.8975C35.7588 181.9 35.3775 181.198 34.7535 180.678C34.1295 180.141 33.3668 179.872 32.4655 179.872ZM47.1259 191.208C45.9645 191.208 44.8292 191.069 43.7199 190.792C42.6105 190.497 41.7265 190.133 41.0679 189.7L42.4199 186.788C43.0439 187.187 43.7979 187.516 44.6819 187.776C45.5659 188.019 46.4325 188.14 47.2819 188.14C48.9979 188.14 49.8559 187.715 49.8559 186.866C49.8559 186.467 49.6219 186.181 49.1539 186.008C48.6859 185.835 47.9665 185.687 46.9959 185.566C45.8519 185.393 44.9072 185.193 44.1619 184.968C43.4165 184.743 42.7665 184.344 42.2119 183.772C41.6745 183.2 41.4059 182.385 41.4059 181.328C41.4059 180.444 41.6572 179.664 42.1599 178.988C42.6799 178.295 43.4252 177.757 44.3959 177.376C45.3839 176.995 46.5452 176.804 47.8799 176.804C48.8679 176.804 49.8472 176.917 50.8179 177.142C51.8059 177.35 52.6205 177.645 53.2619 178.026L51.9099 180.912C50.6792 180.219 49.3359 179.872 47.8799 179.872C47.0132 179.872 46.3632 179.993 45.9299 180.236C45.4965 180.479 45.2799 180.791 45.2799 181.172C45.2799 181.605 45.5139 181.909 45.9819 182.082C46.4499 182.255 47.1952 182.42 48.2179 182.576C49.3619 182.767 50.2979 182.975 51.0259 183.2C51.7539 183.408 52.3865 183.798 52.9239 184.37C53.4612 184.942 53.7299 185.739 53.7299 186.762C53.7299 187.629 53.4699 188.4 52.9499 189.076C52.4299 189.752 51.6672 190.281 50.6619 190.662C49.6739 191.026 48.4952 191.208 47.1259 191.208ZM65.2544 190.324C64.8557 190.619 64.3617 190.844 63.7724 191C63.2004 191.139 62.5937 191.208 61.9524 191.208C60.2884 191.208 58.997 190.783 58.0784 189.934C57.177 189.085 56.7264 187.837 56.7264 186.19V180.444H54.5684V177.324H56.7264V173.918H60.7824V177.324H64.2664V180.444H60.7824V186.138C60.7824 186.727 60.9297 187.187 61.2244 187.516C61.5364 187.828 61.9697 187.984 62.5244 187.984C63.1657 187.984 63.7117 187.811 64.1624 187.464L65.2544 190.324ZM83.0585 172.8C84.6705 172.8 86.0658 173.069 87.2445 173.606C88.4405 174.143 89.3591 174.906 90.0005 175.894C90.6418 176.882 90.9625 178.052 90.9625 179.404C90.9625 180.739 90.6418 181.909 90.0005 182.914C89.3591 183.902 88.4405 184.665 87.2445 185.202C86.0658 185.722 84.6705 185.982 83.0585 185.982H79.3925V191H75.1805V172.8H83.0585ZM82.8245 182.55C84.0898 182.55 85.0518 182.281 85.7105 181.744C86.3691 181.189 86.6985 180.409 86.6985 179.404C86.6985 178.381 86.3691 177.601 85.7105 177.064C85.0518 176.509 84.0898 176.232 82.8245 176.232H79.3925V182.55H82.8245ZM93.6835 177.012H97.7395V191H93.6835V177.012ZM95.7115 175.062C94.9662 175.062 94.3595 174.845 93.8915 174.412C93.4235 173.979 93.1895 173.441 93.1895 172.8C93.1895 172.159 93.4235 171.621 93.8915 171.188C94.3595 170.755 94.9662 170.538 95.7115 170.538C96.4569 170.538 97.0635 170.746 97.5315 171.162C97.9995 171.578 98.2335 172.098 98.2335 172.722C98.2335 173.398 97.9995 173.961 97.5315 174.412C97.0635 174.845 96.4569 175.062 95.7115 175.062ZM110.526 190.324C110.127 190.619 109.633 190.844 109.044 191C108.472 191.139 107.865 191.208 107.224 191.208C105.56 191.208 104.269 190.783 103.35 189.934C102.449 189.085 101.998 187.837 101.998 186.19V180.444H99.8398V177.324H101.998V173.918H106.054V177.324H109.538V180.444H106.054V186.138C106.054 186.727 106.201 187.187 106.496 187.516C106.808 187.828 107.241 187.984 107.796 187.984C108.437 187.984 108.983 187.811 109.434 187.464L110.526 190.324ZM119.131 191.208C117.64 191.208 116.297 190.905 115.101 190.298C113.922 189.674 112.995 188.816 112.319 187.724C111.66 186.632 111.331 185.393 111.331 184.006C111.331 182.619 111.66 181.38 112.319 180.288C112.995 179.196 113.922 178.347 115.101 177.74C116.297 177.116 117.64 176.804 119.131 176.804C120.604 176.804 121.887 177.116 122.979 177.74C124.088 178.347 124.894 179.222 125.397 180.366L122.251 182.056C121.523 180.773 120.474 180.132 119.105 180.132C118.048 180.132 117.172 180.479 116.479 181.172C115.786 181.865 115.439 182.81 115.439 184.006C115.439 185.202 115.786 186.147 116.479 186.84C117.172 187.533 118.048 187.88 119.105 187.88C120.492 187.88 121.54 187.239 122.251 185.956L125.397 187.672C124.894 188.781 124.088 189.648 122.979 190.272C121.887 190.896 120.604 191.208 119.131 191.208ZM136.133 176.804C137.866 176.804 139.261 177.324 140.319 178.364C141.393 179.404 141.931 180.947 141.931 182.992V191H137.875V183.616C137.875 182.507 137.632 181.683 137.147 181.146C136.661 180.591 135.959 180.314 135.041 180.314C134.018 180.314 133.203 180.635 132.597 181.276C131.99 181.9 131.687 182.836 131.687 184.084V191H127.631V171.708H131.687V178.468C132.224 177.931 132.874 177.523 133.637 177.246C134.399 176.951 135.231 176.804 136.133 176.804Z" fill="white"/>
<g clip-path="url(#clip0)">
<path d="M80.6619 72.8477C81.8439 72.8477 82.8022 71.8894 82.8022 70.7074V62.3685C82.8022 61.1865 81.8439 60.2281 80.6619 60.2281C79.4798 60.2281 78.5215 61.1865 78.5215 62.3685V70.7074C78.5215 71.8894 79.4798 72.8477 80.6619 72.8477Z" fill="url(#paint0_linear)"/>
<path d="M110.22 72.8477C111.403 72.8477 112.361 71.8894 112.361 70.7074V62.3685C112.361 61.1865 111.403 60.2281 110.22 60.2281C109.038 60.2281 108.08 61.1865 108.08 62.3685V70.7074C108.08 71.8894 109.038 72.8477 110.22 72.8477Z" fill="url(#paint1_linear)"/>
<path d="M130.972 81.4705C138.176 81.3475 144 75.4524 144 68.2194C144 62.0737 139.795 56.8929 134.11 55.3995C136.199 53.1518 137.429 50.157 137.429 46.9881V46.0892C137.429 42.769 136.08 39.6118 133.754 37.312C140.374 25.7217 138.745 10.6661 128.863 0.783927C128.027 -0.0519561 126.672 -0.0519561 125.836 0.783927L112.565 14.0548C110.552 11.5129 107.471 9.97693 104.108 9.97693C101.434 9.97693 98.8914 10.9664 96.9351 12.7046C92.4829 8.24895 86.4716 5.73616 80.0964 5.73616C77.5665 5.73616 75.1017 6.12485 72.7401 6.8931C71.1976 2.9006 67.321 0.060199 62.7912 0.060199H21.479C20.2969 0.060199 19.3386 1.01851 19.3386 2.20056C19.3386 3.38261 20.2969 4.34093 21.479 4.34093H62.7906C66.3099 4.34093 69.1731 7.20416 69.1731 10.7238V76.1045C69.1731 76.7449 68.7137 77.002 68.5162 77.0825C68.319 77.1632 67.8107 77.3014 67.3624 76.8442L53.8747 63.0922C53.472 62.6818 52.9215 62.4504 52.3467 62.4504H10.6636C7.14397 62.4501 4.28073 59.5869 4.28073 56.0675V10.7235C4.28073 7.20388 7.14397 4.34064 10.6636 4.34064H12.917C14.099 4.34064 15.0573 3.38233 15.0573 2.20028C15.0573 1.01823 14.099 0.0599136 12.917 0.0599136H10.6636C4.78357 0.0599136 0 4.84348 0 10.7235V56.0675C0 61.9473 4.78357 66.7308 10.6636 66.7308H46.0897C46.0344 67.2237 46.0041 67.7203 46.0041 68.2202C46.0041 75.5297 51.9506 81.4762 59.2601 81.4762C59.4762 81.4762 59.6919 81.4699 59.9071 81.4597C61.2501 89.2109 65.0748 96.1223 70.5319 101.341C63.4156 108.136 59.3771 117.508 59.3771 127.42V129.594L47.0421 117.368C46.8252 117.153 46.5732 116.995 46.3052 116.892V113.96C46.3052 110.678 43.6352 108.008 40.353 108.008C37.0708 108.008 34.4008 110.678 34.4008 113.96V116.747H25.238C21.084 116.747 17.7045 120.127 17.7045 124.281C17.7045 127.813 20.2119 130.911 23.6664 131.648L31.6805 133.358L41.4785 143.221C41.8804 143.626 42.4269 143.853 42.9971 143.853L129.367 143.94C130.549 143.94 131.508 142.982 131.508 141.8V127.419C131.508 126.237 130.549 125.279 129.367 125.279C128.185 125.279 127.227 126.237 127.227 127.419V139.659H108.941L113.975 134.626C114.618 133.983 114.784 133.004 114.39 132.184L112.241 127.722H117.203C118.211 127.722 119.083 127.018 119.295 126.033L122.57 110.849C124.332 113.728 125.631 116.876 126.401 120.186C126.631 121.175 127.511 121.842 128.484 121.842C128.644 121.842 128.807 121.824 128.97 121.786C130.122 121.518 130.838 120.367 130.57 119.216C129.048 112.675 125.719 106.692 120.944 101.914C120.754 101.724 120.56 101.535 120.363 101.347C125.841 96.0986 129.633 89.1636 130.972 81.4705ZM139.719 68.2194C139.719 72.929 136.073 76.8002 131.455 77.1647C131.488 76.5414 131.506 75.9147 131.506 75.2846V67.936C132.372 67.9888 133.36 68.3116 133.836 69.4069C134.187 70.2131 134.974 70.6942 135.8 70.6942C136.085 70.6942 136.375 70.6371 136.652 70.5161C137.736 70.045 138.233 68.7839 137.762 67.7C136.445 64.6704 133.782 63.7386 131.507 63.6584V59.2804C136.1 59.6691 139.719 63.5283 139.719 68.2194ZM133.148 46.0889V46.9878C133.148 48.7783 132.546 50.4826 131.5 51.8604C131.472 48.6219 131.018 45.4294 130.144 42.3478C130.545 41.8946 130.93 41.4323 131.3 40.9614C132.477 42.3903 133.148 44.1991 133.148 46.0889ZM95.2825 17.2585C95.7085 17.7836 96.3541 18.0761 97.0336 18.0484C97.7093 18.0204 98.3318 17.6745 98.713 17.1158C99.9336 15.3261 101.95 14.2574 104.108 14.2574C106.77 14.2574 109.141 15.8538 110.148 18.3244C110.418 18.9882 111.004 19.4727 111.706 19.6146C112.409 19.7564 113.136 19.5369 113.643 19.0298L127.287 5.38543C135.977 15.6189 135.492 31.0284 125.836 40.6855C117.534 48.9869 104.627 50.7115 94.4472 44.8794C93.6949 44.4485 92.7568 44.5139 92.0716 45.0452C88.6125 47.7275 84.4713 49.1453 80.0959 49.1453C77.8 49.1453 75.5728 48.7509 73.4539 47.9827V11.1792C75.5728 10.4113 77.8 10.0169 80.0959 10.0169C86.0133 10.0166 91.5488 12.6561 95.2825 17.2585ZM59.2598 77.1955C54.311 77.1955 50.2846 73.1693 50.2846 68.2202C50.2846 67.7183 50.326 67.2205 50.4079 66.7308H51.4475L59.3757 74.8146V75.2849C59.3757 75.9244 59.3931 76.56 59.4262 77.1915C59.3708 77.1924 59.3155 77.1955 59.2598 77.1955ZM63.931 79.4589L64.306 79.8413C65.3331 80.8886 66.706 81.4448 68.1092 81.4445C68.7893 81.4445 69.4768 81.3138 70.1349 81.045C72.1508 80.2214 73.4536 78.2819 73.4536 76.1042V52.4817C75.5971 53.1044 77.8191 53.4263 80.0956 53.4263C84.9562 53.4263 89.5788 51.9914 93.5516 49.2632C104.283 54.7688 117.294 53.3339 126.574 45.7721C127.004 47.8685 127.225 50.0126 127.225 52.1806V75.2851C127.225 90.502 116.398 103.627 101.478 106.493C99.5007 106.875 97.4691 107.068 95.4394 107.068C79.3293 107.068 65.9814 95.0184 63.931 79.4589ZM95.4403 121.799L92.0611 117.483L95.4411 113.803L98.8203 117.482L95.4403 121.799ZM87.0235 116.638L83.3963 109.278C86.1385 110.252 89.032 110.904 92.0317 111.186L87.0235 116.638ZM89.1256 120.677L92.722 125.271L91.8353 126.404L89.0526 120.757L89.1256 120.677ZM95.4403 128.744L96.9448 130.666L95.4403 133.719L93.9357 130.666L95.4403 128.744ZM99.0449 126.404L98.1583 125.271L101.755 120.677L101.828 120.756L99.0449 126.404ZM103.858 116.638L98.8509 111.188C100.007 111.079 101.155 110.915 102.287 110.696C104.073 110.353 105.807 109.879 107.48 109.288L103.858 116.638ZM77.1972 106.383L93.5202 139.507C93.5465 139.561 93.579 139.609 93.6093 139.66H87.9932L81.0068 132.673L83.9739 126.511C84.2933 125.848 84.2493 125.067 83.8578 124.444C83.4662 123.82 82.7816 123.442 82.0456 123.442H75.4059L71.7053 106.281C72.3711 105.534 73.0735 104.814 73.8137 104.127C74.8959 104.94 76.026 105.693 77.1972 106.383ZM63.6579 127.42C63.6579 121.491 65.2974 115.78 68.3116 110.85L71.5858 126.033C71.7984 127.019 72.6699 127.722 73.6782 127.722H78.6398L76.4915 132.184C76.0968 133.004 76.2632 133.983 76.9064 134.626L81.94 139.66H69.5336L63.6581 133.836V127.42H63.6579ZM38.6812 113.96C38.6812 113.038 39.4309 112.289 40.3527 112.289C41.2745 112.289 42.0242 113.039 42.0242 113.96V116.747H38.681V113.96H38.6812ZM21.985 124.281C21.985 122.488 23.4441 121.028 25.2377 121.028H36.5406H40.2871L32.0732 129.065L24.5588 127.462C23.0677 127.144 21.985 125.806 21.985 124.281ZM35.788 131.42L45.5255 121.892L63.3645 139.573H43.8872L35.788 131.42ZM117.916 104.941C118.35 105.376 118.768 105.824 119.175 106.281L115.474 123.442H108.835C108.098 123.442 107.414 123.82 107.022 124.443C106.631 125.067 106.587 125.847 106.906 126.511L109.873 132.673L102.887 139.66H97.271C97.3012 139.609 97.3338 139.56 97.36 139.507L113.671 106.409C114.853 105.715 115.991 104.957 117.08 104.139C117.366 104.404 117.646 104.671 117.916 104.941Z" fill="url(#paint2_linear)"/>
<path d="M95.4419 91.9592C99.8519 91.9592 103.44 88.3714 103.44 83.9614C103.44 79.98 100.749 77.9615 95.4419 77.9615C90.1349 77.9615 87.4443 79.9803 87.4443 83.9614C87.4443 88.3714 91.0319 91.9592 95.4419 91.9592ZM95.4419 82.2422C99.159 82.2422 99.159 83.1163 99.159 83.9614C99.159 86.011 97.4915 87.6785 95.4419 87.6785C93.3923 87.6785 91.7251 86.011 91.7251 83.9614C91.7251 83.1163 91.7251 82.2422 95.4419 82.2422Z" fill="url(#paint3_linear)"/>
<path d="M59.4125 14.4749H14.0408C12.8587 14.4749 11.9004 15.4332 11.9004 16.6152C11.9004 17.7973 12.8587 18.7556 14.0408 18.7556H59.4125C60.5945 18.7556 61.5528 17.7973 61.5528 16.6152C61.5528 15.4332 60.5945 14.4749 59.4125 14.4749Z" fill="url(#paint4_linear)"/>
<path d="M59.4125 25.175H14.0408C12.8587 25.175 11.9004 26.1333 11.9004 27.3153C11.9004 28.4974 12.8587 29.4557 14.0408 29.4557H59.4125C60.5945 29.4557 61.5528 28.4974 61.5528 27.3153C61.5528 26.1333 60.5945 25.175 59.4125 25.175Z" fill="url(#paint5_linear)"/>
<path d="M59.4124 35.8751H52.8503C51.6683 35.8751 50.71 36.8334 50.71 38.0154C50.71 39.1975 51.6683 40.1558 52.8503 40.1558H59.4124C60.5944 40.1558 61.5528 39.1975 61.5528 38.0154C61.5528 36.8334 60.5944 35.8751 59.4124 35.8751Z" fill="url(#paint6_linear)"/>
<path d="M14.0408 40.1558H44.2887C45.4707 40.1558 46.429 39.1975 46.429 38.0154C46.429 36.8334 45.4707 35.8751 44.2887 35.8751H14.0408C12.8587 35.8751 11.9004 36.8334 11.9004 38.0154C11.9004 39.1975 12.8587 40.1558 14.0408 40.1558Z" fill="url(#paint7_linear)"/>
<path d="M14.0408 50.8559H59.4125C60.5945 50.8559 61.5528 49.8976 61.5528 48.7155C61.5528 47.5335 60.5945 46.5752 59.4125 46.5752H14.0408C12.8587 46.5752 11.9004 47.5335 11.9004 48.7155C11.9004 49.8976 12.8587 50.8559 14.0408 50.8559Z" fill="url(#paint8_linear)"/>
</g>
<defs>
<linearGradient id="paint0_linear" x1="80.6619" y1="60.2281" x2="80.6619" y2="72.8477" gradientUnits="userSpaceOnUse">
<stop stop-color="#16CBFF"/>
<stop offset="1" stop-color="#1034FA"/>
</linearGradient>
<linearGradient id="paint1_linear" x1="110.22" y1="60.2281" x2="110.22" y2="72.8477" gradientUnits="userSpaceOnUse">
<stop stop-color="#16CBFF"/>
<stop offset="1" stop-color="#1034FA"/>
</linearGradient>
<linearGradient id="paint2_linear" x1="72.0001" y1="0.0599136" x2="72.0001" y2="143.94" gradientUnits="userSpaceOnUse">
<stop stop-color="#16CBFF"/>
<stop offset="1" stop-color="#1034FA"/>
</linearGradient>
<linearGradient id="paint3_linear" x1="95.442" y1="77.9615" x2="95.442" y2="91.9592" gradientUnits="userSpaceOnUse">
<stop stop-color="#16CBFF"/>
<stop offset="1" stop-color="#1034FA"/>
</linearGradient>
<linearGradient id="paint4_linear" x1="36.7266" y1="14.4749" x2="36.7266" y2="18.7556" gradientUnits="userSpaceOnUse">
<stop stop-color="#16CBFF"/>
<stop offset="1" stop-color="#1034FA"/>
</linearGradient>
<linearGradient id="paint5_linear" x1="36.7266" y1="25.175" x2="36.7266" y2="29.4557" gradientUnits="userSpaceOnUse">
<stop stop-color="#16CBFF"/>
<stop offset="1" stop-color="#1034FA"/>
</linearGradient>
<linearGradient id="paint6_linear" x1="56.1314" y1="35.8751" x2="56.1314" y2="40.1558" gradientUnits="userSpaceOnUse">
<stop stop-color="#16CBFF"/>
<stop offset="1" stop-color="#1034FA"/>
</linearGradient>
<linearGradient id="paint7_linear" x1="29.1647" y1="35.8751" x2="29.1647" y2="40.1558" gradientUnits="userSpaceOnUse">
<stop stop-color="#16CBFF"/>
<stop offset="1" stop-color="#1034FA"/>
</linearGradient>
<linearGradient id="paint8_linear" x1="36.7266" y1="46.5752" x2="36.7266" y2="50.8559" gradientUnits="userSpaceOnUse">
<stop stop-color="#16CBFF"/>
<stop offset="1" stop-color="#1034FA"/>
</linearGradient>
<clipPath id="clip0">
<rect width="144" height="144" fill="white"/>
</clipPath>
</defs>
</svg>
