<svg width="178" height="209" viewBox="0 0 178 209" fill="none" xmlns="http://www.w3.org/2000/svg">
<path d="M39.8394 166.536C40.8794 166.865 41.694 167.42 42.2834 168.2C42.8727 168.963 43.1674 169.907 43.1674 171.034C43.1674 172.629 42.5434 173.859 41.2954 174.726C40.0647 175.575 38.262 176 35.8874 176H26.4754V157.8H35.3674C37.5861 157.8 39.2847 158.225 40.4634 159.074C41.6594 159.923 42.2574 161.076 42.2574 162.532C42.2574 163.416 42.0407 164.205 41.6074 164.898C41.1914 165.591 40.6021 166.137 39.8394 166.536ZM30.6614 160.972V165.262H34.8474C35.8874 165.262 36.6761 165.08 37.2134 164.716C37.7507 164.352 38.0194 163.815 38.0194 163.104C38.0194 162.393 37.7507 161.865 37.2134 161.518C36.6761 161.154 35.8874 160.972 34.8474 160.972H30.6614ZM35.5754 172.828C36.6847 172.828 37.5167 172.646 38.0714 172.282C38.6434 171.918 38.9294 171.355 38.9294 170.592C38.9294 169.084 37.8114 168.33 35.5754 168.33H30.6614V172.828H35.5754ZM59.7722 169.058C59.7722 169.11 59.7462 169.474 59.6942 170.15H49.1122C49.3029 171.017 49.7536 171.701 50.4642 172.204C51.1749 172.707 52.0589 172.958 53.1162 172.958C53.8442 172.958 54.4856 172.854 55.0402 172.646C55.6122 172.421 56.1409 172.074 56.6262 171.606L58.7842 173.946C57.4669 175.454 55.5429 176.208 53.0122 176.208C51.4349 176.208 50.0396 175.905 48.8262 175.298C47.6129 174.674 46.6769 173.816 46.0182 172.724C45.3596 171.632 45.0302 170.393 45.0302 169.006C45.0302 167.637 45.3509 166.406 45.9922 165.314C46.6509 164.205 47.5436 163.347 48.6702 162.74C49.8142 162.116 51.0882 161.804 52.4922 161.804C53.8616 161.804 55.1009 162.099 56.2102 162.688C57.3196 163.277 58.1862 164.127 58.8102 165.236C59.4516 166.328 59.7722 167.602 59.7722 169.058ZM52.5182 164.872C51.5996 164.872 50.8282 165.132 50.2042 165.652C49.5802 166.172 49.1989 166.883 49.0602 167.784H55.9502C55.8116 166.9 55.4302 166.198 54.8062 165.678C54.1822 165.141 53.4196 164.872 52.5182 164.872ZM67.1786 176.208C66.0173 176.208 64.8819 176.069 63.7726 175.792C62.6633 175.497 61.7793 175.133 61.1206 174.7L62.4726 171.788C63.0966 172.187 63.8506 172.516 64.7346 172.776C65.6186 173.019 66.4853 173.14 67.3346 173.14C69.0506 173.14 69.9086 172.715 69.9086 171.866C69.9086 171.467 69.6746 171.181 69.2066 171.008C68.7386 170.835 68.0193 170.687 67.0486 170.566C65.9046 170.393 64.9599 170.193 64.2146 169.968C63.4693 169.743 62.8193 169.344 62.2646 168.772C61.7273 168.2 61.4586 167.385 61.4586 166.328C61.4586 165.444 61.7099 164.664 62.2126 163.988C62.7326 163.295 63.4779 162.757 64.4486 162.376C65.4366 161.995 66.5979 161.804 67.9326 161.804C68.9206 161.804 69.8999 161.917 70.8706 162.142C71.8586 162.35 72.6733 162.645 73.3146 163.026L71.9626 165.912C70.7319 165.219 69.3886 164.872 67.9326 164.872C67.0659 164.872 66.4159 164.993 65.9826 165.236C65.5493 165.479 65.3326 165.791 65.3326 166.172C65.3326 166.605 65.5666 166.909 66.0346 167.082C66.5026 167.255 67.2479 167.42 68.2706 167.576C69.4146 167.767 70.3506 167.975 71.0786 168.2C71.8066 168.408 72.4393 168.798 72.9766 169.37C73.5139 169.942 73.7826 170.739 73.7826 171.762C73.7826 172.629 73.5226 173.4 73.0026 174.076C72.4826 174.752 71.7199 175.281 70.7146 175.662C69.7266 176.026 68.5479 176.208 67.1786 176.208ZM85.3071 175.324C84.9084 175.619 84.4144 175.844 83.8251 176C83.2531 176.139 82.6464 176.208 82.0051 176.208C80.3411 176.208 79.0498 175.783 78.1311 174.934C77.2298 174.085 76.7791 172.837 76.7791 171.19V165.444H74.6211V162.324H76.7791V158.918H80.8351V162.324H84.3191V165.444H80.8351V171.138C80.8351 171.727 80.9824 172.187 81.2771 172.516C81.5891 172.828 82.0224 172.984 82.5771 172.984C83.2184 172.984 83.7644 172.811 84.2151 172.464L85.3071 175.324ZM107.531 166.614H111.379V173.998C110.391 174.743 109.247 175.315 107.947 175.714C106.647 176.113 105.339 176.312 104.021 176.312C102.132 176.312 100.433 175.913 98.9252 175.116C97.4172 174.301 96.2299 173.183 95.3632 171.762C94.5139 170.323 94.0892 168.703 94.0892 166.9C94.0892 165.097 94.5139 163.485 95.3632 162.064C96.2299 160.625 97.4259 159.507 98.9512 158.71C100.477 157.895 102.193 157.488 104.099 157.488C105.694 157.488 107.141 157.757 108.441 158.294C109.741 158.831 110.833 159.611 111.717 160.634L109.013 163.13C107.713 161.761 106.145 161.076 104.307 161.076C103.146 161.076 102.115 161.319 101.213 161.804C100.312 162.289 99.6099 162.974 99.1072 163.858C98.6045 164.742 98.3532 165.756 98.3532 166.9C98.3532 168.027 98.6045 169.032 99.1072 169.916C99.6099 170.8 100.303 171.493 101.187 171.996C102.089 172.481 103.111 172.724 104.255 172.724C105.469 172.724 106.561 172.464 107.531 171.944V166.614ZM115.006 162.012H119.062V176H115.006V162.012ZM117.034 160.062C116.288 160.062 115.682 159.845 115.214 159.412C114.746 158.979 114.512 158.441 114.512 157.8C114.512 157.159 114.746 156.621 115.214 156.188C115.682 155.755 116.288 155.538 117.034 155.538C117.779 155.538 118.386 155.746 118.854 156.162C119.322 156.578 119.556 157.098 119.556 157.722C119.556 158.398 119.322 158.961 118.854 159.412C118.386 159.845 117.779 160.062 117.034 160.062ZM126.7 163.858C127.185 163.182 127.835 162.671 128.65 162.324C129.482 161.977 130.435 161.804 131.51 161.804V165.548C131.059 165.513 130.756 165.496 130.6 165.496C129.439 165.496 128.529 165.825 127.87 166.484C127.211 167.125 126.882 168.096 126.882 169.396V176H122.826V162.012H126.7V163.858ZM133.922 156.708H137.978V176H133.922V156.708ZM146.448 176.208C145.287 176.208 144.151 176.069 143.042 175.792C141.933 175.497 141.049 175.133 140.39 174.7L141.742 171.788C142.366 172.187 143.12 172.516 144.004 172.776C144.888 173.019 145.755 173.14 146.604 173.14C148.32 173.14 149.178 172.715 149.178 171.866C149.178 171.467 148.944 171.181 148.476 171.008C148.008 170.835 147.289 170.687 146.318 170.566C145.174 170.393 144.229 170.193 143.484 169.968C142.739 169.743 142.089 169.344 141.534 168.772C140.997 168.2 140.728 167.385 140.728 166.328C140.728 165.444 140.979 164.664 141.482 163.988C142.002 163.295 142.747 162.757 143.718 162.376C144.706 161.995 145.867 161.804 147.202 161.804C148.19 161.804 149.169 161.917 150.14 162.142C151.128 162.35 151.943 162.645 152.584 163.026L151.232 165.912C150.001 165.219 148.658 164.872 147.202 164.872C146.335 164.872 145.685 164.993 145.252 165.236C144.819 165.479 144.602 165.791 144.602 166.172C144.602 166.605 144.836 166.909 145.304 167.082C145.772 167.255 146.517 167.42 147.54 167.576C148.684 167.767 149.62 167.975 150.348 168.2C151.076 168.408 151.709 168.798 152.246 169.37C152.783 169.942 153.052 170.739 153.052 171.762C153.052 172.629 152.792 173.4 152.272 174.076C151.752 174.752 150.989 175.281 149.984 175.662C148.996 176.026 147.817 176.208 146.448 176.208ZM57.9339 193.232H52.1099V189.8H67.9699V193.232H62.1459V208H57.9339V193.232ZM82.2303 201.058C82.2303 201.11 82.2043 201.474 82.1523 202.15H71.5703C71.7609 203.017 72.2116 203.701 72.9223 204.204C73.6329 204.707 74.5169 204.958 75.5743 204.958C76.3023 204.958 76.9436 204.854 77.4983 204.646C78.0703 204.421 78.5989 204.074 79.0843 203.606L81.2423 205.946C79.9249 207.454 78.0009 208.208 75.4703 208.208C73.8929 208.208 72.4976 207.905 71.2843 207.298C70.0709 206.674 69.1349 205.816 68.4763 204.724C67.8176 203.632 67.4883 202.393 67.4883 201.006C67.4883 199.637 67.8089 198.406 68.4503 197.314C69.1089 196.205 70.0016 195.347 71.1283 194.74C72.2723 194.116 73.5463 193.804 74.9503 193.804C76.3196 193.804 77.5589 194.099 78.6683 194.688C79.7776 195.277 80.6443 196.127 81.2683 197.236C81.9096 198.328 82.2303 199.602 82.2303 201.058ZM74.9763 196.872C74.0576 196.872 73.2863 197.132 72.6623 197.652C72.0383 198.172 71.6569 198.883 71.5183 199.784H78.4083C78.2696 198.9 77.8883 198.198 77.2643 197.678C76.6403 197.141 75.8776 196.872 74.9763 196.872ZM90.1917 193.804C92.3584 193.804 94.0224 194.324 95.1837 195.364C96.3451 196.387 96.9257 197.938 96.9257 200.018V208H93.1297V206.258C92.3671 207.558 90.9457 208.208 88.8657 208.208C87.7911 208.208 86.8551 208.026 86.0577 207.662C85.2777 207.298 84.6797 206.795 84.2637 206.154C83.8477 205.513 83.6397 204.785 83.6397 203.97C83.6397 202.67 84.1251 201.647 85.0957 200.902C86.0837 200.157 87.6004 199.784 89.6457 199.784H92.8697C92.8697 198.9 92.6011 198.224 92.0637 197.756C91.5264 197.271 90.7204 197.028 89.6457 197.028C88.9004 197.028 88.1637 197.149 87.4357 197.392C86.7251 197.617 86.1184 197.929 85.6157 198.328L84.1597 195.494C84.9224 194.957 85.8324 194.541 86.8897 194.246C87.9644 193.951 89.0651 193.804 90.1917 193.804ZM89.8797 205.478C90.5731 205.478 91.1884 205.322 91.7257 205.01C92.2631 204.681 92.6444 204.204 92.8697 203.58V202.15H90.0877C88.4237 202.15 87.5917 202.696 87.5917 203.788C87.5917 204.308 87.7911 204.724 88.1897 205.036C88.6057 205.331 89.1691 205.478 89.8797 205.478ZM118.511 193.804C120.261 193.804 121.648 194.324 122.671 195.364C123.711 196.387 124.231 197.929 124.231 199.992V208H120.175V200.616C120.175 199.507 119.941 198.683 119.473 198.146C119.022 197.591 118.372 197.314 117.523 197.314C116.569 197.314 115.815 197.626 115.261 198.25C114.706 198.857 114.429 199.767 114.429 200.98V208H110.373V200.616C110.373 198.415 109.489 197.314 107.721 197.314C106.785 197.314 106.039 197.626 105.485 198.25C104.93 198.857 104.653 199.767 104.653 200.98V208H100.597V194.012H104.471V195.624C104.991 195.035 105.623 194.584 106.369 194.272C107.131 193.96 107.963 193.804 108.865 193.804C109.853 193.804 110.745 194.003 111.543 194.402C112.34 194.783 112.981 195.347 113.467 196.092C114.039 195.364 114.758 194.801 115.625 194.402C116.509 194.003 117.471 193.804 118.511 193.804Z" fill="white"/>
<g clip-path="url(#clip0)">
<path d="M151.23 45.8132C146.715 45.8132 144.117 46.3097 142.628 46.9065C138.937 46.4687 133.93 47.3109 128.574 52.3614C128.236 51.8176 127.894 51.2992 127.56 50.7912C122.581 43.2269 125.637 43.6797 121.886 35.8101C121.347 34.6777 119.826 34.1304 118.491 34.5878C117.156 35.0463 116.512 36.3354 117.051 37.4679C120.365 44.4204 117.566 44.6831 123.006 52.9478C125.722 57.0732 127.353 60.1872 127.353 68.5106C127.353 76.0346 122.39 79.4388 119.432 80.7982C115.762 82.4848 111.926 82.5793 110.749 82.0297C109.668 80.2717 110.874 72.4702 111.274 68.9161C112.395 58.9937 105.042 49.7532 93.7909 46.9457C84.8646 44.7165 81.5279 41.386 80.3016 38.9851C79.8684 38.1361 78.8608 37.6073 77.7689 37.6568C76.6798 37.7064 75.7414 38.3273 75.4182 39.2109C75.4005 39.2604 73.574 44.1762 70.0621 47.3385C65.1786 51.7358 62.7559 57.6803 63.4159 63.6467C63.7527 66.6823 64.998 79.1001 63.4662 81.888C62.1692 82.3834 59.2155 82.4767 56.2917 81.1473C53.3937 79.8294 49.856 76.8571 49.4581 70.173C48.6867 57.1873 57.4216 52.9051 58.6289 44.6428C59.536 38.4356 62.6513 33.339 67.1763 30.6582C71.3156 28.2044 76.7273 27.6122 83.2621 28.899C84.1978 29.0822 85.177 28.8149 85.8112 28.2032C85.8451 28.1687 89.5715 24.7736 97.186 24.7736C102.834 24.7736 107.708 26.5904 111.671 30.1743C112.655 31.0649 114.307 31.1098 115.356 30.2746C116.406 29.4382 116.459 28.0385 115.473 27.148C110.556 22.7011 104.233 20.3498 97.186 20.3498C89.7834 20.3498 85.1131 22.9062 83.0747 24.3416C75.6314 23.1089 69.2826 24.0121 64.1886 27.0304C60.8194 29.0269 54.9445 33.9 53.4534 44.0978C53.0351 46.9537 51.1258 49.6288 49.2748 52.6183C43.8114 47.1899 39.1316 45.9526 36.0041 45.9526C31.4846 45.9526 28.8867 46.448 27.3969 47.0459C23.5822 46.5989 19.6833 47.706 16.0547 50.2808C6.06772 57.3658 -0.45217 74.3987 0.0244975 82.4249C0.491659 90.276 4.51686 93.246 6.87575 94.3174C10.2382 95.8449 14.0054 95.2758 15.6921 93.9176C17.9491 95.868 20.6747 97.3887 23.6623 98.376V104.361H16.4308C12.168 104.361 8.69958 107.303 8.69958 110.92V123.368C8.69958 124.591 9.86613 125.58 11.307 125.58H22.2486C23.6881 125.58 24.856 124.591 24.856 123.368C24.856 122.147 23.6881 121.156 22.2486 121.156H13.9144V110.92C13.9144 109.743 15.0429 108.785 16.4308 108.785H42.2823C40.3702 109.876 39.1086 111.728 39.1086 113.825V121.157H33.3736C31.9341 121.157 30.7662 122.147 30.7662 123.369C30.7662 124.591 31.9341 125.581 33.3736 125.581H39.2063C39.7686 128.453 42.7182 130.65 46.2627 130.65H57.4365C58.4591 130.65 59.4328 130.467 60.3128 130.138C60.765 130.458 61.3476 130.65 61.9818 130.65H116.014C116.649 130.65 117.231 130.458 117.683 130.138C118.564 130.467 119.538 130.65 120.56 130.65H131.734C135.336 130.65 138.322 128.382 138.816 125.442H167.521C168.962 125.442 170.128 124.452 170.128 123.23V110.781C170.128 107.165 166.66 104.223 162.397 104.223H155.166V98.2435C157.643 97.4278 159.949 96.2436 161.96 94.7367C164.025 95.4256 167.142 95.3507 170.192 93.9499C177.239 90.7126 178 83.6979 178 80.8316C178 68.2802 164.506 45.8132 151.23 45.8132ZM127.129 81.2671C127.234 83.8361 127.604 89.086 127.181 90.5606C124.15 91.4108 121.694 88.2588 120.909 85.1207C123.309 84.1564 125.421 82.8293 127.129 81.2671ZM73.8578 50.3718C75.85 48.577 77.371 46.4123 78.4439 44.5679C81.4858 47.4261 86.1303 49.6437 92.3188 51.1886C101.177 53.4005 106.967 60.6779 106.084 68.4945C105.398 74.5726 104.62 79.4526 105.436 82.4952C94.8624 91.0986 77.5679 89.6574 69.2948 79.1969C69.5922 75.9378 69.4632 70.9587 68.6077 63.2331C68.0875 58.5317 70.001 53.8441 73.8578 50.3718ZM88.9985 112.775L82.2504 108.448H95.7465L88.9985 112.775ZM100.914 104.024H77.0845V99.6052H100.914V104.024ZM84.2915 95.1814V92.208C87.324 92.625 90.514 92.6492 93.7054 92.2011V95.1814H84.2915ZM56.5742 86.0262C55.3234 88.8026 53.1805 89.9742 51.8659 90.4511C50.4508 90.9626 49.253 90.9361 48.7288 90.7898C48.2114 89.4961 48.9393 84.2543 49.2096 81.9215C51.1733 83.8154 53.668 85.2474 56.5742 86.0262ZM9.33922 90.4177C6.97625 89.344 5.4797 86.3499 5.23254 82.2014C4.81698 75.2005 10.9987 59.6353 19.4008 53.6736C22.1128 51.7497 24.7773 51.0285 27.3182 51.5285C28.1207 51.6863 28.9546 51.5123 29.5766 51.0723C29.8387 50.9605 31.4248 50.3764 36.0041 50.3764C39.1004 50.3764 42.9925 52.8015 46.8004 57.0721C45.3243 60.1964 44.1876 63.9244 44.1957 68.6489C41.9183 66.5729 38.9863 64.9842 35.6035 64.1386C32.0101 63.2412 27.3915 61.5201 25.808 58.4199C24.8506 56.5479 21.6443 56.6873 20.9246 58.6457C20.911 58.6826 19.5679 62.2873 17.0175 64.5856C13.5831 67.6811 11.8312 71.9011 11.8135 77.1267C11.7918 82.2832 12.4776 88.8786 11.9561 90.6988C11.2866 90.8843 10.3156 90.8624 9.33922 90.4177ZM17.3679 88.6804C17.4249 85.7105 17.0107 81.4284 17.0297 77.1405C17.0433 73.0727 18.3171 69.8689 20.8146 67.6166C22.1305 66.4323 23.1802 65.043 23.9774 63.7746C26.3472 65.7423 29.7422 67.2848 34.13 68.3816C40.5372 69.9829 44.724 75.25 44.0857 80.9065C43.6199 85.0239 43.0183 88.8774 43.552 91.3509C35.7678 97.4509 23.2997 96.2919 17.3679 88.6804ZM34.7248 99.5176V104.361H28.8772V99.5165C30.758 99.7285 32.719 99.7423 34.7248 99.5176ZM39.9397 98.3852C42.4167 97.5684 44.7213 96.3841 46.7312 94.8772C48.5278 95.4821 51.1285 95.527 53.9124 94.5201C57.6647 93.1619 60.4731 90.3405 61.8324 86.6379C63.8885 86.5561 66.4783 85.9985 67.6611 84.5792C70.8185 87.5123 74.7296 89.723 79.0753 91.0594V95.1814H74.4757C73.0362 95.1814 71.8683 96.171 71.8683 97.3933V104.024H68.7462C65.1338 104.024 61.9927 105.767 60.4282 108.313C59.5184 107.956 58.5039 107.757 57.4365 107.757H53.9396C52.6006 105.716 50.0176 104.361 47.1712 104.361H39.9397V98.3852ZM57.4365 126.226H46.2627C45.1939 126.226 44.3234 125.489 44.3234 124.582V113.825C44.3234 112.918 45.1939 112.181 46.2627 112.181H57.4365C58.5053 112.181 59.3744 112.918 59.3744 113.825V124.582C59.3744 125.489 58.5053 126.226 57.4365 126.226ZM113.406 126.226H64.5892V111.975C64.5892 110.03 66.4552 108.448 68.7475 108.448H73.6011L86.391 116.648V119.909C86.391 121.131 87.5589 122.121 88.9985 122.121C90.438 122.121 91.6059 121.131 91.6059 119.909V116.648L104.394 108.448H109.249C111.542 108.448 113.406 110.03 113.406 111.975V126.226ZM133.674 124.582C133.674 125.489 132.803 126.226 131.734 126.226H120.56C119.492 126.226 118.622 125.489 118.622 124.582V113.825C118.622 112.918 119.492 112.181 120.56 112.181H131.734C132.803 112.181 133.674 112.918 133.674 113.825V124.582ZM164.914 110.781V121.018H138.887V113.825C138.887 111.636 137.514 109.714 135.459 108.646H162.397C163.785 108.646 164.914 109.605 164.914 110.781ZM131.66 104.223C128.717 104.223 126.098 105.633 124.797 107.757H120.56C119.493 107.757 118.479 107.956 117.567 108.313C116.004 105.767 112.863 104.024 109.251 104.024H106.129V97.3933C106.129 96.171 104.961 95.1814 103.521 95.1814H98.9216V91.0364C102.476 89.935 105.767 88.2473 108.585 86.0538C110.751 86.9155 113.564 86.8798 115.935 86.5019C117.345 91.4684 120.475 93.5017 122.382 94.3001C125.68 95.6837 129.31 95.0742 130.919 93.777C133.176 95.7274 135.902 97.2458 138.888 98.2343V104.223H131.66ZM149.951 104.221H144.103V99.3748C145.992 99.5879 147.953 99.5994 149.951 99.3759V104.221ZM167.708 90.0594C166.061 90.8163 164.581 90.8278 163.963 90.655C163.86 90.367 163.7 89.5882 163.819 87.6586C163.894 86.4386 162.79 85.3983 161.351 85.3349C159.908 85.2704 158.686 86.2082 158.611 87.4282C158.532 88.6954 158.5 90.0306 158.766 91.2241C151.037 97.2585 138.569 96.2067 132.594 88.5399C132.621 87.1033 132.54 85.3983 132.445 83.3995C132.351 81.4341 132.245 79.2073 132.254 77.0034C132.272 72.931 133.546 69.7272 136.045 67.4795C137.359 66.2941 138.409 64.9047 139.206 63.6364C141.575 65.604 144.97 67.1466 149.359 68.2445C154.777 69.5981 158.678 73.5588 159.295 78.3329C159.452 79.5471 160.742 80.425 162.172 80.2902C163.603 80.1565 164.637 79.0644 164.479 77.8502C163.632 71.2974 158.276 65.8609 150.834 64.0004C147.236 63.1018 142.617 61.3807 141.038 58.2805C140.604 57.4303 139.592 56.8993 138.501 56.9511C137.411 57.0018 136.472 57.6239 136.152 58.5086C136.138 58.5444 134.831 62.0258 132.394 64.3114C132.125 61.2632 131.567 58.9015 130.86 56.9615C133.759 53.7231 137.935 50.4813 142.546 51.3902C143.348 51.5481 144.183 51.3741 144.805 50.934C145.067 50.8223 146.652 50.2382 151.23 50.2382C155.247 50.2382 160.614 54.3728 165.238 61.0281C169.823 67.6282 172.785 75.4009 172.785 80.8328C172.785 83.4076 172.126 88.0307 167.708 90.0594Z" fill="url(#paint0_linear)"/>
</g>
<defs>
<linearGradient id="paint0_linear" x1="88.9998" y1="20.3498" x2="88.9998" y2="130.65" gradientUnits="userSpaceOnUse">
<stop stop-color="#16C0FC"/>
<stop offset="1" stop-color="#1034FA"/>
</linearGradient>
<clipPath id="clip0">
<rect width="178" height="151" fill="white"/>
</clipPath>
</defs>
</svg>
