<svg width="275" height="275" viewBox="0 0 275 275" fill="none" xmlns="http://www.w3.org/2000/svg">
<g clip-path="url(#clip0)">
<path d="M39.129 38.1945H84.9624C93.3957 38.1945 99.3006 37.4001 99.3006 45.8334V30.5556C99.3006 22.1223 93.3957 15.2778 84.9624 15.2778H23.8512C8.57346 15.2778 -3.5189 31.5105 0.934573 53.4723C0.934573 53.4723 14.6158 125.087 15.5783 129.54C18.1221 141.319 31.8033 152.778 46.4471 152.778H99.5985C108.039 152.778 99.3006 138.294 99.3006 129.861V114.583C99.3006 123.017 93.3957 129.861 84.9624 129.861H54.4068C45.9735 129.861 40.4047 121.901 39.129 114.583C37.8533 107.265 27.029 58.5674 27.029 58.5674C24.4853 43.9237 30.688 38.1945 39.129 38.1945ZM236.304 38.1945H190.471C182.037 38.1945 168.051 37.4001 168.051 45.8334V30.5556C168.051 22.1223 182.037 15.2778 190.471 15.2778H251.582C266.86 15.2778 278.96 31.5105 274.498 53.4723C274.498 53.4723 262.024 125.423 260.97 129.861C258.266 141.319 245.371 152.778 230.414 152.778H175.827C167.394 152.778 168.051 138.294 168.051 129.861V114.583C168.051 123.017 182.037 129.861 190.471 129.861H221.026C229.46 129.861 235.036 121.901 236.304 114.583C237.572 107.265 248.404 58.5674 248.404 58.5674C250.94 43.9237 244.745 38.1945 236.304 38.1945ZM159.128 168.056C159.128 114.904 138.435 168.056 138.435 168.056C138.435 168.056 115.518 114.904 115.518 168.056C115.518 221.207 90.3783 244.444 90.3783 244.444H184.276C184.268 244.444 159.128 221.207 159.128 168.056Z" fill="url(#paint0_linear)"/>
<path d="M222.468 50.2409C222.468 101.994 170.752 189.208 138.44 189.208C106.12 189.208 54.4121 101.994 54.4121 50.2409C54.4121 10.5568 62.051 1.97073 77.3288 1.97073C87.8246 1.97073 123.353 1.76448 138.44 1.76448L191.912 1.75684C214.195 1.74921 222.468 6.98184 222.468 50.2409Z" fill="url(#paint1_linear)"/>
<path d="M206.25 252.083C206.25 260.517 207.984 267.361 199.551 267.361H77.3285C68.8875 267.361 68.75 260.517 68.75 252.083V244.445C68.75 236.011 77.6417 229.167 85.6014 229.167H191.912C199.872 229.167 206.25 236.011 206.25 244.445V252.083Z" fill="url(#paint2_linear)"/>
<path d="M221.528 264.496C221.528 270.302 222.789 275 211.964 275H64.9157C55.0463 275 53.4727 270.302 53.4727 264.496V262.587C53.4727 256.781 59.1102 252.083 64.9157 252.083H211.964C217.762 252.083 221.528 256.781 221.528 262.587V264.496Z" fill="url(#paint3_linear)"/>
<g clip-path="url(#clip1)">
<path d="M138.896 32L96 56.4983V105.502L138.896 130L180.88 105.502V56.4983L138.896 32ZM173.578 100.966L138.896 121.834L103.302 100.966V61.0342L138.896 40.1661L173.578 61.0342V100.966Z" fill="url(#paint4_linear)"/>
<path d="M141.184 52.2427V84.7211H158.968V90.3698L141.184 100.254V109.436L166.034 95.3117V77.7794H148.128V64.6667L166.034 73.1784V65.6603L141.184 52.2427Z" fill="#6C6C6C"/>
<path d="M118.592 71.1866V90.4272L126.885 95.2335V66.3804L118.592 71.1866Z" fill="#CFCFCF"/>
</g>
</g>
<defs>
<linearGradient id="paint0_linear" x1="137.718" y1="15.2778" x2="137.718" y2="244.444" gradientUnits="userSpaceOnUse">
<stop stop-color="#595959"/>
<stop offset="1" stop-color="#949494"/>
</linearGradient>
<linearGradient id="paint1_linear" x1="138.44" y1="1.75684" x2="138.44" y2="189.208" gradientUnits="userSpaceOnUse">
<stop stop-color="#D0D0D0"/>
<stop offset="1" stop-color="#686868"/>
</linearGradient>
<linearGradient id="paint2_linear" x1="137.574" y1="229.167" x2="137.574" y2="267.361" gradientUnits="userSpaceOnUse">
<stop stop-color="#757575"/>
<stop offset="1" stop-color="#353535"/>
</linearGradient>
<linearGradient id="paint3_linear" x1="137.523" y1="252.083" x2="137.523" y2="275" gradientUnits="userSpaceOnUse">
<stop stop-color="#757575"/>
<stop offset="1" stop-color="#353535"/>
</linearGradient>
<linearGradient id="paint4_linear" x1="96" y1="80.795" x2="180.88" y2="80.9765" gradientUnits="userSpaceOnUse">
<stop stop-color="#D0D0D0"/>
<stop offset="1" stop-color="#6E6E6E"/>
</linearGradient>
<clipPath id="clip0">
<rect width="275" height="275" fill="white"/>
</clipPath>
<clipPath id="clip1">
<rect width="84.88" height="98" fill="white" transform="translate(96 32)"/>
</clipPath>
</defs>
</svg>
