<svg width="237" height="196" viewBox="0 0 237 196" fill="none" xmlns="http://www.w3.org/2000/svg">
<g clip-path="url(#clip0)">
<path d="M124.251 83.2114C108.009 97.9837 88.6006 106.229 75.1785 110.545C66.7003 113.271 59.4784 114.815 54.8906 115.634L69.7989 100.726C70.4954 100.03 70.4954 98.9003 69.7989 98.2041C69.1024 97.5076 67.9732 97.5076 67.277 98.2041L52.3627 113.118C53.1755 108.56 54.7073 101.394 57.4114 92.9586C61.7147 79.5339 69.9411 60.1177 84.6919 43.8555C85.3537 43.126 85.2988 41.9979 84.5692 41.3364C83.8395 40.6747 82.7117 40.7298 82.0502 41.4591C66.8704 58.1943 58.426 78.1098 54.0149 91.8698C49.2383 106.77 48.0577 117.576 48.0099 118.029C47.9533 118.565 48.1416 119.097 48.5223 119.478C48.8585 119.814 49.3129 120 49.7833 120C49.8458 120 49.9083 119.997 49.9711 119.99C50.4248 119.942 61.2549 118.759 76.1815 113.969C89.9655 109.545 109.911 101.076 126.651 85.8501C127.38 85.1874 127.433 84.0596 126.77 83.3308C126.108 82.6022 124.98 82.5487 124.251 83.2114Z" fill="url(#paint0_linear)"/>
<path d="M91.5096 36.3898C91.9308 36.3898 92.3535 36.2415 92.6931 35.94C102.945 26.8369 115.435 19.2678 129.816 13.4428C130.729 13.0731 131.169 12.0333 130.799 11.1204C130.43 10.2076 129.39 9.76719 128.477 10.1369C113.718 16.1153 100.881 23.8993 90.3248 33.273C89.5884 33.9269 89.5215 35.0542 90.1754 35.7906C90.5278 36.1875 91.0174 36.3898 91.5096 36.3898Z" fill="url(#paint1_linear)"/>
<path d="M167.477 0.52239C167.096 0.141462 166.565 -0.0470998 166.028 0.00996815C165.498 0.0660849 152.837 1.45283 136.033 7.29659C135.103 7.62021 134.611 8.63649 134.935 9.5667C135.258 10.4971 136.274 10.9884 137.205 10.6655C147.243 7.17461 155.891 5.2985 161.115 4.36544L117.256 48.2245C111.889 43.5071 105.806 42.0207 99.969 44.0493C99.0386 44.3727 98.5466 45.3889 98.8697 46.3191C99.1931 47.2496 100.21 47.7413 101.14 47.4184C107.478 45.2154 112.728 48.663 116.02 51.9501C116.026 51.9556 116.03 51.9615 116.036 51.9667C116.041 51.972 116.046 51.9765 116.052 51.9815C119.25 55.1856 122.646 60.2941 120.711 66.4679C120.416 67.4079 120.939 68.4085 121.879 68.7031C122.057 68.7587 122.236 68.7851 122.413 68.7851C123.172 68.7851 123.875 68.2969 124.114 67.5346C125.893 61.8592 124.351 55.9543 119.778 50.7467L163.635 6.88903C162.821 11.454 161.286 18.6317 158.576 27.0797C154.263 40.5218 146.019 59.9596 131.234 76.2258C130.571 76.9546 130.625 78.0827 131.354 78.7449C131.696 79.0554 132.125 79.2086 132.553 79.2086C133.038 79.2086 133.521 79.0119 133.873 78.6246C149.088 61.8854 157.551 41.9473 161.972 28.1692C166.759 13.249 167.942 2.42465 167.99 1.9712C168.046 1.43571 167.858 0.903319 167.477 0.52239Z" fill="url(#paint2_linear)"/>
<path d="M93.9248 49.7214C93.2284 49.0249 92.0991 49.0249 91.4029 49.7214C86.7923 54.332 83.8 60.0364 82.9768 65.7841C82.2252 71.0348 83.349 75.7743 86.1491 79.3313L72.9833 92.4971C72.2868 93.1935 72.2868 94.3228 72.9833 95.019C73.3314 95.3673 73.7879 95.5414 74.2443 95.5414C74.7006 95.5414 75.1571 95.3673 75.5052 95.019L88.6732 81.8513C91.5087 84.0819 95.0931 85.2504 99.0911 85.2504C100.108 85.2504 101.152 85.175 102.215 85.0226C107.963 84.1996 113.668 81.2074 118.278 76.5968C118.975 75.9003 118.975 74.7711 118.278 74.0748C117.582 73.3784 116.452 73.3784 115.756 74.0748C114.511 75.3203 113.188 76.4168 111.821 77.365L90.6327 56.1772C91.5898 54.7987 92.69 53.4781 93.9248 52.2435C94.6213 51.5471 94.6213 50.4178 93.9248 49.7214ZM108.66 79.249C101.738 82.7496 94.282 82.5713 89.8549 78.1445C87.0092 75.2987 85.8205 71.0888 86.5074 66.2896C86.8439 63.9396 87.6112 61.591 88.7488 59.3375L108.66 79.249Z" fill="url(#paint3_linear)"/>
<path d="M149.752 89.4423C144.671 87.224 140.849 86.6899 138.351 87.8413L80.1471 29.6373C82.9715 23.3217 74.4846 10.0254 71.0898 6.4092C66.6299 1.65853 62.8263 -0.38949 59.4626 0.148851C56.8535 0.56616 54.7139 2.52763 53.1034 5.97857C49.8455 12.9599 50.3123 19.1972 54.3838 23.0918C56.9726 25.5681 61.8514 28.6383 66.2483 30.558C69.5941 32.0189 72.3942 32.7496 74.6301 32.7496C75.7817 32.7496 76.7804 32.5518 77.63 32.1639L135.846 90.3801C133.044 96.7023 141.519 109.978 144.91 113.591C148.908 117.849 152.377 119.935 155.476 119.935C155.834 119.935 156.188 119.907 156.538 119.851C159.147 119.434 161.286 117.473 162.897 114.021C166.155 107.04 165.688 100.803 161.616 96.9084C159.027 94.4322 154.148 91.3619 149.752 89.4423ZM67.6754 27.2892C63.154 25.3151 58.8068 22.3868 56.8492 20.5142C55.4786 19.2034 52.6849 15.3097 56.3356 7.48707C57.4151 5.17368 58.6568 3.88989 60.0262 3.67089C60.1746 3.64711 60.3358 3.63356 60.5108 3.63356C62.0195 3.63356 64.5398 4.64342 68.4896 8.85052C70.3667 10.85 73.2952 15.221 75.2612 19.706C77.561 24.9534 77.4248 27.779 76.6077 28.6086C76.6058 28.6105 76.6039 28.6119 76.602 28.6138C76.5999 28.616 76.5982 28.6181 76.5963 28.6203C75.7631 29.4413 72.9311 29.584 67.6754 27.2892ZM159.664 112.513C158.585 114.826 157.343 116.11 155.974 116.329C154.545 116.558 151.918 115.844 147.511 111.15C145.634 109.15 142.705 104.779 140.739 100.294C138.433 95.034 138.576 92.2075 139.398 91.3852C139.729 91.0547 140.38 90.8328 141.381 90.8328C142.881 90.8328 145.165 91.3315 148.324 92.7111C152.846 94.6852 157.193 97.6135 159.151 99.486C160.521 100.797 163.315 104.691 159.664 112.513Z" fill="url(#paint4_linear)"/>
</g>
<path d="M13.6831 153.536C14.7231 153.865 15.5378 154.42 16.1271 155.2C16.7165 155.963 17.0111 156.907 17.0111 158.034C17.0111 159.629 16.3871 160.859 15.1391 161.726C13.9085 162.575 12.1058 163 9.73113 163H0.319133V144.8H9.21113C11.4298 144.8 13.1285 145.225 14.3071 146.074C15.5031 146.923 16.1011 148.076 16.1011 149.532C16.1011 150.416 15.8845 151.205 15.4511 151.898C15.0351 152.591 14.4458 153.137 13.6831 153.536ZM4.50513 147.972V152.262H8.69113C9.73113 152.262 10.5198 152.08 11.0571 151.716C11.5945 151.352 11.8631 150.815 11.8631 150.104C11.8631 149.393 11.5945 148.865 11.0571 148.518C10.5198 148.154 9.73113 147.972 8.69113 147.972H4.50513ZM9.41913 159.828C10.5285 159.828 11.3605 159.646 11.9151 159.282C12.4871 158.918 12.7731 158.355 12.7731 157.592C12.7731 156.084 11.6551 155.33 9.41913 155.33H4.50513V159.828H9.41913ZM33.616 156.058C33.616 156.11 33.59 156.474 33.538 157.15H22.956C23.1467 158.017 23.5973 158.701 24.308 159.204C25.0187 159.707 25.9027 159.958 26.96 159.958C27.688 159.958 28.3293 159.854 28.884 159.646C29.456 159.421 29.9847 159.074 30.47 158.606L32.628 160.946C31.3107 162.454 29.3867 163.208 26.856 163.208C25.2787 163.208 23.8833 162.905 22.67 162.298C21.4567 161.674 20.5207 160.816 19.862 159.724C19.2033 158.632 18.874 157.393 18.874 156.006C18.874 154.637 19.1947 153.406 19.836 152.314C20.4947 151.205 21.3873 150.347 22.514 149.74C23.658 149.116 24.932 148.804 26.336 148.804C27.7053 148.804 28.9447 149.099 30.054 149.688C31.1633 150.277 32.03 151.127 32.654 152.236C33.2953 153.328 33.616 154.602 33.616 156.058ZM26.362 151.872C25.4433 151.872 24.672 152.132 24.048 152.652C23.424 153.172 23.0427 153.883 22.904 154.784H29.794C29.6553 153.9 29.274 153.198 28.65 152.678C28.026 152.141 27.2633 151.872 26.362 151.872ZM41.0223 163.208C39.861 163.208 38.7257 163.069 37.6163 162.792C36.507 162.497 35.623 162.133 34.9643 161.7L36.3163 158.788C36.9403 159.187 37.6943 159.516 38.5783 159.776C39.4623 160.019 40.329 160.14 41.1783 160.14C42.8943 160.14 43.7523 159.715 43.7523 158.866C43.7523 158.467 43.5183 158.181 43.0503 158.008C42.5823 157.835 41.863 157.687 40.8923 157.566C39.7483 157.393 38.8037 157.193 38.0583 156.968C37.313 156.743 36.663 156.344 36.1083 155.772C35.571 155.2 35.3023 154.385 35.3023 153.328C35.3023 152.444 35.5537 151.664 36.0563 150.988C36.5763 150.295 37.3217 149.757 38.2923 149.376C39.2803 148.995 40.4417 148.804 41.7763 148.804C42.7643 148.804 43.7437 148.917 44.7143 149.142C45.7023 149.35 46.517 149.645 47.1583 150.026L45.8063 152.912C44.5757 152.219 43.2323 151.872 41.7763 151.872C40.9097 151.872 40.2597 151.993 39.8263 152.236C39.393 152.479 39.1763 152.791 39.1763 153.172C39.1763 153.605 39.4103 153.909 39.8783 154.082C40.3463 154.255 41.0917 154.42 42.1143 154.576C43.2583 154.767 44.1943 154.975 44.9223 155.2C45.6503 155.408 46.283 155.798 46.8203 156.37C47.3577 156.942 47.6263 157.739 47.6263 158.762C47.6263 159.629 47.3663 160.4 46.8463 161.076C46.3263 161.752 45.5637 162.281 44.5583 162.662C43.5703 163.026 42.3917 163.208 41.0223 163.208ZM59.1508 162.324C58.7522 162.619 58.2582 162.844 57.6688 163C57.0968 163.139 56.4902 163.208 55.8488 163.208C54.1848 163.208 52.8935 162.783 51.9748 161.934C51.0735 161.085 50.6228 159.837 50.6228 158.19V152.444H48.4648V149.324H50.6228V145.918H54.6788V149.324H58.1628V152.444H54.6788V158.138C54.6788 158.727 54.8262 159.187 55.1208 159.516C55.4328 159.828 55.8662 159.984 56.4208 159.984C57.0622 159.984 57.6082 159.811 58.0588 159.464L59.1508 162.324ZM80.6729 163L77.1629 157.93H76.9549H73.2889V163H69.0769V144.8H76.9549C78.5669 144.8 79.9623 145.069 81.1409 145.606C82.3369 146.143 83.2556 146.906 83.8969 147.894C84.5383 148.882 84.8589 150.052 84.8589 151.404C84.8589 152.756 84.5296 153.926 83.8709 154.914C83.2296 155.885 82.3109 156.63 81.1149 157.15L85.1969 163H80.6729ZM80.5949 151.404C80.5949 150.381 80.2656 149.601 79.6069 149.064C78.9483 148.509 77.9863 148.232 76.7209 148.232H73.2889V154.576H76.7209C77.9863 154.576 78.9483 154.299 79.6069 153.744C80.2656 153.189 80.5949 152.409 80.5949 151.404ZM101.612 156.058C101.612 156.11 101.586 156.474 101.534 157.15H90.9521C91.1428 158.017 91.5934 158.701 92.3041 159.204C93.0148 159.707 93.8988 159.958 94.9561 159.958C95.6841 159.958 96.3254 159.854 96.8801 159.646C97.4521 159.421 97.9808 159.074 98.4661 158.606L100.624 160.946C99.3068 162.454 97.3828 163.208 94.8521 163.208C93.2748 163.208 91.8794 162.905 90.6661 162.298C89.4528 161.674 88.5168 160.816 87.8581 159.724C87.1994 158.632 86.8701 157.393 86.8701 156.006C86.8701 154.637 87.1908 153.406 87.8321 152.314C88.4908 151.205 89.3834 150.347 90.5101 149.74C91.6541 149.116 92.9281 148.804 94.3321 148.804C95.7014 148.804 96.9408 149.099 98.0501 149.688C99.1594 150.277 100.026 151.127 100.65 152.236C101.291 153.328 101.612 154.602 101.612 156.058ZM94.3581 151.872C93.4394 151.872 92.6681 152.132 92.0441 152.652C91.4201 153.172 91.0388 153.883 90.9001 154.784H97.7901C97.6514 153.9 97.2701 153.198 96.6461 152.678C96.0221 152.141 95.2594 151.872 94.3581 151.872ZM111.072 163.208C109.582 163.208 108.238 162.905 107.042 162.298C105.864 161.674 104.936 160.816 104.26 159.724C103.602 158.632 103.272 157.393 103.272 156.006C103.272 154.619 103.602 153.38 104.26 152.288C104.936 151.196 105.864 150.347 107.042 149.74C108.238 149.116 109.582 148.804 111.072 148.804C112.546 148.804 113.828 149.116 114.92 149.74C116.03 150.347 116.836 151.222 117.338 152.366L114.192 154.056C113.464 152.773 112.416 152.132 111.046 152.132C109.989 152.132 109.114 152.479 108.42 153.172C107.727 153.865 107.38 154.81 107.38 156.006C107.38 157.202 107.727 158.147 108.42 158.84C109.114 159.533 109.989 159.88 111.046 159.88C112.433 159.88 113.482 159.239 114.192 157.956L117.338 159.672C116.836 160.781 116.03 161.648 114.92 162.272C113.828 162.896 112.546 163.208 111.072 163.208ZM123.548 150.858C124.033 150.182 124.683 149.671 125.498 149.324C126.33 148.977 127.283 148.804 128.358 148.804V152.548C127.907 152.513 127.604 152.496 127.448 152.496C126.286 152.496 125.376 152.825 124.718 153.484C124.059 154.125 123.73 155.096 123.73 156.396V163H119.674V149.012H123.548V150.858ZM144.345 156.058C144.345 156.11 144.319 156.474 144.267 157.15H133.685C133.875 158.017 134.326 158.701 135.037 159.204C135.747 159.707 136.631 159.958 137.689 159.958C138.417 159.958 139.058 159.854 139.613 159.646C140.185 159.421 140.713 159.074 141.199 158.606L143.357 160.946C142.039 162.454 140.115 163.208 137.585 163.208C136.007 163.208 134.612 162.905 133.399 162.298C132.185 161.674 131.249 160.816 130.591 159.724C129.932 158.632 129.603 157.393 129.603 156.006C129.603 154.637 129.923 153.406 130.565 152.314C131.223 151.205 132.116 150.347 133.243 149.74C134.387 149.116 135.661 148.804 137.065 148.804C138.434 148.804 139.673 149.099 140.783 149.688C141.892 150.277 142.759 151.127 143.383 152.236C144.024 153.328 144.345 154.602 144.345 156.058ZM137.091 151.872C136.172 151.872 135.401 152.132 134.777 152.652C134.153 153.172 133.771 153.883 133.633 154.784H140.523C140.384 153.9 140.003 153.198 139.379 152.678C138.755 152.141 137.992 151.872 137.091 151.872ZM152.306 148.804C154.473 148.804 156.137 149.324 157.298 150.364C158.459 151.387 159.04 152.938 159.04 155.018V163H155.244V161.258C154.481 162.558 153.06 163.208 150.98 163.208C149.905 163.208 148.969 163.026 148.172 162.662C147.392 162.298 146.794 161.795 146.378 161.154C145.962 160.513 145.754 159.785 145.754 158.97C145.754 157.67 146.239 156.647 147.21 155.902C148.198 155.157 149.715 154.784 151.76 154.784H154.984C154.984 153.9 154.715 153.224 154.178 152.756C153.641 152.271 152.835 152.028 151.76 152.028C151.015 152.028 150.278 152.149 149.55 152.392C148.839 152.617 148.233 152.929 147.73 153.328L146.274 150.494C147.037 149.957 147.947 149.541 149.004 149.246C150.079 148.951 151.179 148.804 152.306 148.804ZM151.994 160.478C152.687 160.478 153.303 160.322 153.84 160.01C154.377 159.681 154.759 159.204 154.984 158.58V157.15H152.202C150.538 157.15 149.706 157.696 149.706 158.788C149.706 159.308 149.905 159.724 150.304 160.036C150.72 160.331 151.283 160.478 151.994 160.478ZM171.733 162.324C171.334 162.619 170.84 162.844 170.251 163C169.679 163.139 169.072 163.208 168.431 163.208C166.767 163.208 165.476 162.783 164.557 161.934C163.656 161.085 163.205 159.837 163.205 158.19V152.444H161.047V149.324H163.205V145.918H167.261V149.324H170.745V152.444H167.261V158.138C167.261 158.727 167.408 159.187 167.703 159.516C168.015 159.828 168.448 159.984 169.003 159.984C169.644 159.984 170.19 159.811 170.641 159.464L171.733 162.324ZM174.01 149.012H178.066V163H174.01V149.012ZM176.038 147.062C175.292 147.062 174.686 146.845 174.218 146.412C173.75 145.979 173.516 145.441 173.516 144.8C173.516 144.159 173.75 143.621 174.218 143.188C174.686 142.755 175.292 142.538 176.038 142.538C176.783 142.538 177.39 142.746 177.858 143.162C178.326 143.578 178.56 144.098 178.56 144.722C178.56 145.398 178.326 145.961 177.858 146.412C177.39 146.845 176.783 147.062 176.038 147.062ZM188.486 163.208C187.013 163.208 185.687 162.905 184.508 162.298C183.347 161.674 182.437 160.816 181.778 159.724C181.119 158.632 180.79 157.393 180.79 156.006C180.79 154.619 181.119 153.38 181.778 152.288C182.437 151.196 183.347 150.347 184.508 149.74C185.687 149.116 187.013 148.804 188.486 148.804C189.959 148.804 191.277 149.116 192.438 149.74C193.599 150.347 194.509 151.196 195.168 152.288C195.827 153.38 196.156 154.619 196.156 156.006C196.156 157.393 195.827 158.632 195.168 159.724C194.509 160.816 193.599 161.674 192.438 162.298C191.277 162.905 189.959 163.208 188.486 163.208ZM188.486 159.88C189.526 159.88 190.375 159.533 191.034 158.84C191.71 158.129 192.048 157.185 192.048 156.006C192.048 154.827 191.71 153.891 191.034 153.198C190.375 152.487 189.526 152.132 188.486 152.132C187.446 152.132 186.588 152.487 185.912 153.198C185.236 153.891 184.898 154.827 184.898 156.006C184.898 157.185 185.236 158.129 185.912 158.84C186.588 159.533 187.446 159.88 188.486 159.88ZM207.369 148.804C209.102 148.804 210.498 149.324 211.555 150.364C212.63 151.404 213.167 152.947 213.167 154.992V163H209.111V155.616C209.111 154.507 208.868 153.683 208.383 153.146C207.898 152.591 207.196 152.314 206.277 152.314C205.254 152.314 204.44 152.635 203.833 153.276C203.226 153.9 202.923 154.836 202.923 156.084V163H198.867V149.012H202.741V150.65C203.278 150.061 203.946 149.61 204.743 149.298C205.54 148.969 206.416 148.804 207.369 148.804ZM222.486 148.804C224.652 148.804 226.316 149.324 227.478 150.364C228.639 151.387 229.22 152.938 229.22 155.018V163H225.424V161.258C224.661 162.558 223.24 163.208 221.16 163.208C220.085 163.208 219.149 163.026 218.352 162.662C217.572 162.298 216.974 161.795 216.558 161.154C216.142 160.513 215.934 159.785 215.934 158.97C215.934 157.67 216.419 156.647 217.39 155.902C218.378 155.157 219.894 154.784 221.94 154.784H225.164C225.164 153.9 224.895 153.224 224.358 152.756C223.82 152.271 223.014 152.028 221.94 152.028C221.194 152.028 220.458 152.149 219.73 152.392C219.019 152.617 218.412 152.929 217.91 153.328L216.454 150.494C217.216 149.957 218.126 149.541 219.184 149.246C220.258 148.951 221.359 148.804 222.486 148.804ZM222.174 160.478C222.867 160.478 223.482 160.322 224.02 160.01C224.557 159.681 224.938 159.204 225.164 158.58V157.15H222.382C220.718 157.15 219.886 157.696 219.886 158.788C219.886 159.308 220.085 159.724 220.484 160.036C220.9 160.331 221.463 160.478 222.174 160.478ZM232.891 143.708H236.947V163H232.891V143.708ZM102.539 176.8V195H98.3275V187.538H90.0595V195H85.8475V176.8H90.0595V183.976H98.3275V176.8H102.539ZM112.202 180.804C114.368 180.804 116.032 181.324 117.194 182.364C118.355 183.387 118.936 184.938 118.936 187.018V195H115.14V193.258C114.377 194.558 112.956 195.208 110.876 195.208C109.801 195.208 108.865 195.026 108.068 194.662C107.288 194.298 106.69 193.795 106.274 193.154C105.858 192.513 105.65 191.785 105.65 190.97C105.65 189.67 106.135 188.647 107.106 187.902C108.094 187.157 109.61 186.784 111.656 186.784H114.88C114.88 185.9 114.611 185.224 114.074 184.756C113.536 184.271 112.73 184.028 111.656 184.028C110.91 184.028 110.174 184.149 109.446 184.392C108.735 184.617 108.128 184.929 107.626 185.328L106.17 182.494C106.932 181.957 107.842 181.541 108.9 181.246C109.974 180.951 111.075 180.804 112.202 180.804ZM111.89 192.478C112.583 192.478 113.198 192.322 113.736 192.01C114.273 191.681 114.654 191.204 114.88 190.58V189.15H112.098C110.434 189.15 109.602 189.696 109.602 190.788C109.602 191.308 109.801 191.724 110.2 192.036C110.616 192.331 111.179 192.478 111.89 192.478ZM129.519 195.208C128.028 195.208 126.685 194.905 125.489 194.298C124.31 193.674 123.383 192.816 122.707 191.724C122.048 190.632 121.719 189.393 121.719 188.006C121.719 186.619 122.048 185.38 122.707 184.288C123.383 183.196 124.31 182.347 125.489 181.74C126.685 181.116 128.028 180.804 129.519 180.804C130.992 180.804 132.275 181.116 133.367 181.74C134.476 182.347 135.282 183.222 135.785 184.366L132.639 186.056C131.911 184.773 130.862 184.132 129.493 184.132C128.435 184.132 127.56 184.479 126.867 185.172C126.173 185.865 125.827 186.81 125.827 188.006C125.827 189.202 126.173 190.147 126.867 190.84C127.56 191.533 128.435 191.88 129.493 191.88C130.879 191.88 131.928 191.239 132.639 189.956L135.785 191.672C135.282 192.781 134.476 193.648 133.367 194.272C132.275 194.896 130.992 195.208 129.519 195.208ZM144.024 189.514L142.074 191.438V195H138.018V175.708H142.074V186.628L148.002 181.012H152.838L147.014 186.94L153.358 195H148.444L144.024 189.514Z" fill="white"/>
<defs>
<linearGradient id="paint0_linear" x1="87.6173" y1="40.874" x2="87.6173" y2="120" gradientUnits="userSpaceOnUse">
<stop stop-color="#16D6FF"/>
<stop offset="1" stop-color="#1034FA"/>
</linearGradient>
<linearGradient id="paint1_linear" x1="110.328" y1="10.006" x2="110.328" y2="36.3898" gradientUnits="userSpaceOnUse">
<stop stop-color="#16D6FF"/>
<stop offset="1" stop-color="#1034FA"/>
</linearGradient>
<linearGradient id="paint2_linear" x1="133.385" y1="-6.10352e-05" x2="133.385" y2="79.2086" gradientUnits="userSpaceOnUse">
<stop stop-color="#16D6FF"/>
<stop offset="1" stop-color="#1034FA"/>
</linearGradient>
<linearGradient id="paint3_linear" x1="95.6307" y1="49.199" x2="95.6307" y2="95.5414" gradientUnits="userSpaceOnUse">
<stop stop-color="#16D6FF"/>
<stop offset="1" stop-color="#1034FA"/>
</linearGradient>
<linearGradient id="paint4_linear" x1="108" y1="0.0649414" x2="108" y2="119.935" gradientUnits="userSpaceOnUse">
<stop stop-color="#16D6FF"/>
<stop offset="1" stop-color="#1034FA"/>
</linearGradient>
<clipPath id="clip0">
<rect width="120" height="120" fill="white" transform="translate(48)"/>
</clipPath>
</defs>
</svg>
