<svg width="145" height="192" viewBox="0 0 145 192" fill="none" xmlns="http://www.w3.org/2000/svg">
<path d="M129.107 97.1665C128.35 96.8528 127.479 97.0261 126.9 97.6053L104.764 119.741C104.185 120.32 104.012 121.191 104.325 121.948C104.638 122.705 105.378 123.199 106.197 123.199H128.332C129.451 123.199 130.358 122.292 130.358 121.173V99.0376C130.357 98.2185 129.864 97.48 129.107 97.1665ZM111.086 119.148L126.306 103.928V119.148H111.086Z" fill="url(#paint0_linear)"/>
<path d="M143.75 64.7002C142.993 64.3864 142.122 64.5597 141.542 65.139L135.476 71.2053V29.9587C135.476 28.8398 134.569 27.9331 133.45 27.9331H117.887L123.537 22.2838C123.537 22.283 123.538 22.2819 123.539 22.2811L128.983 16.8376C130.149 15.6714 130.791 14.1199 130.791 12.4704C130.791 10.8209 130.149 9.26999 128.983 8.10319L122.688 1.80855C121.522 0.642293 119.97 0 118.321 0C116.671 0 115.12 0.642293 113.953 1.80855L108.507 7.2547L101.926 13.8356L87.8292 27.9329H24.9562V7.89457C24.9562 6.77575 24.0492 5.86904 22.9306 5.86904C14.1466 5.86958 7 13.0157 7 21.8002V107.831C7 107.98 7.01725 108.126 7.04798 108.266C7.32775 111.993 8.94036 115.457 11.6354 118.086C14.5161 120.895 18.319 122.443 22.3436 122.443H84.2382L72.5813 134.1C72.002 134.679 71.8287 135.55 72.1422 136.307C72.4557 137.064 73.1945 137.557 74.0136 137.557H142.974C144.093 137.557 145 136.651 145 135.532V66.5715C145 65.7524 144.506 65.0136 143.75 64.7002ZM116.819 4.6734C117.647 3.84486 118.996 3.84486 119.824 4.6734L126.119 10.9683C126.947 11.7966 126.947 13.145 126.119 13.9736L122.105 17.9874L112.804 8.68726L116.819 4.6734ZM109.94 11.5518L119.24 20.8517L115.524 24.5683L106.224 15.2684L109.94 11.5518ZM140.949 89.3313H137.212C136.094 89.3313 135.187 90.238 135.187 91.3568C135.187 92.4756 136.094 93.3823 137.212 93.3823H140.949V99.4861H137.212C136.094 99.4861 135.187 100.393 135.187 101.512C135.187 102.63 136.094 103.537 137.212 103.537H140.949V109.641H137.212C136.094 109.641 135.187 110.547 135.187 111.666C135.187 112.785 136.094 113.692 137.212 113.692H140.949V119.796H137.212C136.094 119.796 135.187 120.703 135.187 121.821C135.187 122.94 136.094 123.847 137.212 123.847H140.949V133.507H78.9034L99.363 113.048C100.154 112.257 100.154 110.974 99.363 110.183C99.2721 110.092 99.1746 110.014 99.0724 109.944C98.2838 109.404 97.1986 109.483 96.4981 110.183L88.2893 118.392H22.3439C16.2007 118.392 11.2554 113.596 11.0608 107.464C11.0723 107.079 11.1023 106.697 11.1502 106.32C11.1505 106.318 11.1508 106.316 11.1511 106.314C11.1737 106.134 11.2009 105.956 11.2319 105.779C11.2354 105.758 11.2392 105.738 11.2427 105.718C11.271 105.56 11.3028 105.402 11.3376 105.245C11.3473 105.202 11.3575 105.158 11.3678 105.115C11.3985 104.982 11.4316 104.85 11.4672 104.719C11.4866 104.648 11.5068 104.578 11.5276 104.507C11.5572 104.404 11.588 104.301 11.6206 104.199C11.6532 104.098 11.688 103.997 11.7233 103.897C11.7478 103.826 11.7721 103.756 11.7985 103.686C11.8478 103.554 11.9001 103.422 11.954 103.292C11.9693 103.255 11.9844 103.217 12.0003 103.179C12.0696 103.018 12.1416 102.858 12.2176 102.7C12.2208 102.693 12.2238 102.686 12.227 102.68C13.8113 99.401 16.8584 96.9566 20.5151 96.1981C20.5253 96.196 20.5356 96.1935 20.5458 96.1914C20.7135 96.1572 20.8827 96.1278 21.0531 96.1005C21.0814 96.096 21.1097 96.0903 21.1385 96.086C21.2924 96.0625 21.448 96.0442 21.6035 96.0267C21.6471 96.0218 21.6905 96.0151 21.7345 96.0108C21.8846 95.9957 22.0361 95.9857 22.1875 95.9763C22.2355 95.9733 22.2835 95.9682 22.3315 95.9658C22.5299 95.9558 22.7298 95.9507 22.9306 95.9507C24.0492 95.9507 24.9562 95.044 24.9562 93.9252V79.2387C24.9562 78.1199 24.0492 77.2131 22.9306 77.2131C21.8121 77.2131 20.9051 78.1199 20.9051 79.2387V92.0271C17.4848 92.4597 14.31 93.9853 11.8066 96.4299C11.5432 96.687 11.2936 96.9544 11.0505 97.2261V21.8002C11.0505 15.9403 15.3161 11.0572 20.9048 10.0929V29.9587V71.1368V71.1371C20.9048 72.2557 21.8118 73.1626 22.9304 73.1626C24.0489 73.1626 24.9559 72.2557 24.9559 71.1371V71.1368V31.9842H83.7784L72.581 43.1816C71.7899 43.9729 71.7899 45.2551 72.581 46.0462C73.3721 46.837 74.6545 46.837 75.4453 46.0462L90.1005 31.391C90.1011 31.3904 90.1013 31.3899 90.1019 31.3896L103.359 18.1327L112.658 27.4329L111.567 28.524C111.567 28.5248 111.565 28.5256 111.565 28.5264L70.7231 69.3684L61.4232 60.0685L69.4736 52.0182C70.2646 51.2268 70.2646 49.9447 69.4736 49.1536C68.6825 48.3628 67.4001 48.3628 66.6093 49.1536L57.1263 58.6362C57.0757 58.6869 57.0282 58.7406 56.9838 58.7955C56.9689 58.8139 56.9557 58.8335 56.9417 58.8527C56.9131 58.8907 56.8851 58.929 56.859 58.9688C56.8441 58.992 56.8307 59.0157 56.8167 59.0397C56.7943 59.0775 56.7727 59.1157 56.753 59.1548C56.7401 59.1802 56.7285 59.2058 56.7167 59.2322C56.6986 59.2718 56.6819 59.3122 56.6665 59.3527C56.6611 59.3669 56.6541 59.3804 56.649 59.3947L52.7028 70.5735L50.0123 78.1956C49.9768 78.2969 49.9512 78.3999 49.932 78.5037H43.1959C42.0773 78.5037 41.1704 79.4104 41.1704 80.5292C41.1704 81.648 42.0773 82.5547 43.1959 82.5547H99.2891C100.408 82.5547 101.315 81.648 101.315 80.5292C101.315 79.4104 100.408 78.5037 99.2891 78.5037H59.0446L71.3972 74.1432C71.4075 74.1394 71.4172 74.1343 71.4274 74.1305C71.4754 74.1127 71.5225 74.0928 71.5692 74.0715C71.5878 74.0629 71.6064 74.0548 71.6244 74.0459C71.673 74.0216 71.7206 73.9949 71.7675 73.9664C71.7826 73.9572 71.7983 73.9489 71.8131 73.9394C71.8619 73.9081 71.9093 73.8739 71.956 73.8378C71.9675 73.8289 71.9797 73.8211 71.991 73.8119C72.0473 73.7666 72.1026 73.7179 72.1549 73.6656L113.836 31.9845H131.425V75.2566L102.451 104.23C101.66 105.022 101.66 106.304 102.451 107.095C102.5 107.144 102.552 107.191 102.605 107.234C102.976 107.537 103.43 107.688 103.883 107.688C104.337 107.688 104.791 107.537 105.162 107.234C105.215 107.191 105.266 107.144 105.316 107.095C105.316 107.094 105.316 107.095 105.316 107.094L140.949 71.4608V89.3313ZM67.0184 71.3924L61.2165 73.4405L57.3509 69.5749L59.399 63.773L67.0184 71.3924Z" fill="url(#paint1_linear)"/>
<path d="M13.6431 179.536C14.6831 179.865 15.4978 180.42 16.0871 181.2C16.6764 181.963 16.9711 182.907 16.9711 184.034C16.9711 185.629 16.3471 186.859 15.0991 187.726C13.8684 188.575 12.0658 189 9.69109 189H0.279094V170.8H9.17109C11.3898 170.8 13.0884 171.225 14.2671 172.074C15.4631 172.923 16.0611 174.076 16.0611 175.532C16.0611 176.416 15.8444 177.205 15.4111 177.898C14.9951 178.591 14.4058 179.137 13.6431 179.536ZM4.46509 173.972V178.262H8.65109C9.69109 178.262 10.4798 178.08 11.0171 177.716C11.5544 177.352 11.8231 176.815 11.8231 176.104C11.8231 175.393 11.5544 174.865 11.0171 174.518C10.4798 174.154 9.69109 173.972 8.65109 173.972H4.46509ZM9.37909 185.828C10.4884 185.828 11.3204 185.646 11.8751 185.282C12.4471 184.918 12.7331 184.355 12.7331 183.592C12.7331 182.084 11.6151 181.33 9.37909 181.33H4.46509V185.828H9.37909ZM33.576 182.058C33.576 182.11 33.55 182.474 33.498 183.15H22.916C23.1066 184.017 23.5573 184.701 24.268 185.204C24.9786 185.707 25.8626 185.958 26.92 185.958C27.648 185.958 28.2893 185.854 28.844 185.646C29.416 185.421 29.9446 185.074 30.43 184.606L32.588 186.946C31.2706 188.454 29.3466 189.208 26.816 189.208C25.2386 189.208 23.8433 188.905 22.63 188.298C21.4166 187.674 20.4806 186.816 19.822 185.724C19.1633 184.632 18.834 183.393 18.834 182.006C18.834 180.637 19.1546 179.406 19.796 178.314C20.4546 177.205 21.3473 176.347 22.474 175.74C23.618 175.116 24.892 174.804 26.296 174.804C27.6653 174.804 28.9046 175.099 30.014 175.688C31.1233 176.277 31.99 177.127 32.614 178.236C33.2553 179.328 33.576 180.602 33.576 182.058ZM26.322 177.872C25.4033 177.872 24.632 178.132 24.008 178.652C23.384 179.172 23.0026 179.883 22.864 180.784H29.754C29.6153 179.9 29.234 179.198 28.61 178.678C27.986 178.141 27.2233 177.872 26.322 177.872ZM40.9823 189.208C39.821 189.208 38.6856 189.069 37.5763 188.792C36.467 188.497 35.583 188.133 34.9243 187.7L36.2763 184.788C36.9003 185.187 37.6543 185.516 38.5383 185.776C39.4223 186.019 40.289 186.14 41.1383 186.14C42.8543 186.14 43.7123 185.715 43.7123 184.866C43.7123 184.467 43.4783 184.181 43.0103 184.008C42.5423 183.835 41.823 183.687 40.8523 183.566C39.7083 183.393 38.7636 183.193 38.0183 182.968C37.273 182.743 36.623 182.344 36.0683 181.772C35.531 181.2 35.2623 180.385 35.2623 179.328C35.2623 178.444 35.5136 177.664 36.0163 176.988C36.5363 176.295 37.2816 175.757 38.2523 175.376C39.2403 174.995 40.4016 174.804 41.7363 174.804C42.7243 174.804 43.7036 174.917 44.6743 175.142C45.6623 175.35 46.477 175.645 47.1183 176.026L45.7663 178.912C44.5356 178.219 43.1923 177.872 41.7363 177.872C40.8696 177.872 40.2196 177.993 39.7863 178.236C39.353 178.479 39.1363 178.791 39.1363 179.172C39.1363 179.605 39.3703 179.909 39.8383 180.082C40.3063 180.255 41.0516 180.42 42.0743 180.576C43.2183 180.767 44.1543 180.975 44.8823 181.2C45.6103 181.408 46.243 181.798 46.7803 182.37C47.3176 182.942 47.5863 183.739 47.5863 184.762C47.5863 185.629 47.3263 186.4 46.8063 187.076C46.2863 187.752 45.5236 188.281 44.5183 188.662C43.5303 189.026 42.3516 189.208 40.9823 189.208ZM59.1108 188.324C58.7121 188.619 58.2181 188.844 57.6288 189C57.0568 189.139 56.4501 189.208 55.8088 189.208C54.1448 189.208 52.8535 188.783 51.9348 187.934C51.0335 187.085 50.5828 185.837 50.5828 184.19V178.444H48.4248V175.324H50.5828V171.918H54.6388V175.324H58.1228V178.444H54.6388V184.138C54.6388 184.727 54.7861 185.187 55.0808 185.516C55.3928 185.828 55.8261 185.984 56.3808 185.984C57.0221 185.984 57.5681 185.811 58.0188 185.464L59.1108 188.324ZM77.1229 189.312C74.5229 189.312 72.4949 188.593 71.0389 187.154C69.6002 185.715 68.8809 183.661 68.8809 180.992V170.8H73.0929V180.836C73.0929 184.095 74.4449 185.724 77.1489 185.724C78.4662 185.724 79.4716 185.334 80.1649 184.554C80.8582 183.757 81.2049 182.517 81.2049 180.836V170.8H85.3649V180.992C85.3649 183.661 84.6369 185.715 83.1809 187.154C81.7422 188.593 79.7229 189.312 77.1229 189.312ZM89.5271 170.8H93.7391V189H89.5271V170.8ZM103.622 167.108H107.236L98.6564 191.6H95.0424L103.622 167.108ZM116.326 189.312C113.726 189.312 111.698 188.593 110.242 187.154C108.803 185.715 108.084 183.661 108.084 180.992V170.8H112.296V180.836C112.296 184.095 113.648 185.724 116.352 185.724C117.669 185.724 118.675 185.334 119.368 184.554C120.061 183.757 120.408 182.517 120.408 180.836V170.8H124.568V180.992C124.568 183.661 123.84 185.715 122.384 187.154C120.945 188.593 118.926 189.312 116.326 189.312ZM139.942 189L135.548 182.682L131.232 189H126.396L133.13 179.744L126.734 170.8H131.518L135.704 176.702L139.812 170.8H144.362L138.018 179.588L144.804 189H139.942Z" fill="white"/>
<defs>
<linearGradient id="paint0_linear" x1="117.264" y1="97.0121" x2="117.264" y2="123.199" gradientUnits="userSpaceOnUse">
<stop stop-color="#16D6FF"/>
<stop offset="1" stop-color="#1034FA"/>
</linearGradient>
<linearGradient id="paint1_linear" x1="76" y1="0" x2="76" y2="137.557" gradientUnits="userSpaceOnUse">
<stop stop-color="#16D6FF"/>
<stop offset="1" stop-color="#1034FA"/>
</linearGradient>
</defs>
</svg>
